<svg width="1422" height="526" viewBox="0 0 1422 526" fill="none" xmlns="http://www.w3.org/2000/svg">
<path d="M0 315.6L78.9 298.012C157.8 281.081 315.6 244.919 473.4 245.412C631.2 244.919 789 281.081 946.8 254.288C1104.6 228.481 1262.4 139.719 1420.2 131.5C1578 123.281 1735.8 192.319 1893.6 184.1C2051.4 175.881 2209.2 87.1187 2288.1 43.8881L2367 0V526H2288.1C2209.2 526 2051.4 526 1893.6 526C1735.8 526 1578 526 1420.2 526C1262.4 526 1104.6 526 946.8 526C789 526 631.2 526 473.4 526C315.6 526 157.8 526 78.9 526H0V315.6Z" fill="#6000B9" fill-opacity="0.3"/>
</svg>
