<svg width="194" height="195" viewBox="0 0 194 195" fill="none" xmlns="http://www.w3.org/2000/svg">
<path d="M96.8648 0.629517C43.7358 0.629517 0.51892 44.2007 0.51892 97.7651C0.503735 111.476 3.38341 125.034 8.96655 137.536C24.0658 171.324 57.7792 194.901 96.8648 194.901C122.413 194.886 146.911 184.648 164.976 166.435C183.041 148.221 193.197 123.523 193.211 97.7651C193.211 44.2007 149.986 0.629517 96.8648 0.629517ZM176.578 136.814C169.302 151.889 157.971 164.599 143.877 173.495C129.783 182.392 113.493 187.116 96.8648 187.13C59.3053 187.13 27.1258 163.452 14.2463 130.123C10.2547 119.81 8.21293 108.835 8.22658 97.7651C8.22658 48.4901 47.9905 8.40037 96.8648 8.40037C145.739 8.40037 185.503 48.4901 185.503 97.7651C185.52 111.297 182.467 124.654 176.578 136.814Z" fill="#E6E6E6"/>
<path d="M97.1453 194.901C78.883 194.886 60.9974 189.705 45.5535 179.956C30.1096 170.207 17.7374 156.287 9.86544 139.804C9.55121 139.147 9.41479 138.419 9.46977 137.692C9.52475 136.966 9.76921 136.267 10.1788 135.664L10.2305 135.589C10.6394 134.996 11.1971 134.521 11.8474 134.212C12.4977 133.903 13.2178 133.771 13.9354 133.829C14.653 133.886 15.3429 134.131 15.9358 134.54C16.5288 134.948 17.0039 135.505 17.3135 136.155C31.9407 166.807 63.2765 186.614 97.1451 186.614C112.623 186.574 127.821 182.488 141.232 174.76C154.644 167.032 165.802 155.93 173.6 142.557C173.963 141.929 174.485 141.409 175.114 141.048C175.743 140.687 176.457 140.5 177.182 140.504C177.899 140.502 178.604 140.692 179.224 141.053C179.843 141.414 180.356 141.935 180.707 142.56L180.752 142.639C181.109 143.27 181.295 143.984 181.291 144.709C181.287 145.434 181.094 146.145 180.731 146.772C172.199 161.384 159.998 173.513 145.336 181.955C130.675 190.397 114.062 194.86 97.1453 194.901Z" fill="#C78BFF"/>
<path d="M75.0623 107.088C77.6603 107.071 80.1835 107.977 82.2013 109.653C84.2192 111.328 85.6064 113.668 86.1264 116.274C86.6463 118.88 86.2666 121.589 85.0522 123.94C83.8377 126.292 81.8638 128.138 79.4674 129.165C77.0709 130.192 74.4005 130.336 71.9121 129.572C69.4236 128.808 67.2714 127.183 65.8228 124.976C64.3742 122.768 63.719 120.114 63.9691 117.467C64.2192 114.819 65.359 112.343 67.1941 110.461C68.2226 109.394 69.4476 108.546 70.7982 107.967C72.1488 107.389 73.5982 107.09 75.0623 107.088ZM75.0623 102.196C71.9111 102.194 68.8302 103.149 66.2091 104.94C63.5881 106.731 61.5446 109.277 60.3371 112.257C59.1296 115.236 58.8124 118.516 59.4255 121.68C60.0386 124.844 61.5546 127.751 63.7816 130.033C66.0086 132.316 68.8468 133.871 71.9371 134.502C75.0274 135.133 78.2311 134.812 81.1431 133.579C84.0551 132.346 86.5446 130.257 88.2967 127.575C90.0488 124.894 90.9849 121.741 90.9866 118.515C90.9888 114.189 89.3124 110.04 86.326 106.98C83.3396 103.919 79.288 102.198 75.0623 102.196H75.0623ZM108.259 78.8707C109.7 78.8782 111.086 78.2993 112.11 77.2613C113.134 76.2233 113.714 74.8114 113.721 73.336C113.721 73.3172 113.721 73.2984 113.721 73.2796C113.728 72.5568 113.595 71.8398 113.331 71.1694C113.067 70.499 112.677 69.8884 112.182 69.3725C111.688 68.8566 111.099 68.4454 110.449 68.1624C109.8 67.8795 109.102 67.7303 108.396 67.7234C108.362 67.7231 108.328 67.7231 108.293 67.7234C106.849 67.7095 105.459 68.2833 104.428 69.3187C103.398 70.3541 102.811 71.7662 102.797 73.2444C102.784 74.7226 103.344 76.1458 104.356 77.2009C105.367 78.256 106.747 78.8565 108.191 78.8705C108.214 78.8707 108.236 78.8708 108.259 78.8707ZM119.678 107.088C122.275 107.071 124.799 107.977 126.817 109.653C128.834 111.328 130.222 113.668 130.742 116.274C131.262 118.88 130.882 121.589 129.667 123.94C128.453 126.292 126.479 128.138 124.083 129.165C121.686 130.192 119.016 130.336 116.527 129.572C114.039 128.808 111.887 127.183 110.438 124.976C108.989 122.768 108.334 120.114 108.584 117.467C108.834 114.819 109.974 112.343 111.809 110.46C112.838 109.394 114.063 108.546 115.413 107.967C116.764 107.389 118.213 107.09 119.678 107.088ZM119.678 102.196C116.528 102.196 113.449 103.152 110.831 104.943C108.212 106.735 106.171 109.281 104.965 112.259C103.76 115.238 103.445 118.516 104.059 121.678C104.674 124.84 106.19 127.745 108.417 130.025C110.644 132.305 113.482 133.857 116.571 134.486C119.66 135.115 122.862 134.792 125.771 133.558C128.681 132.325 131.168 130.235 132.918 127.554C134.668 124.874 135.602 121.722 135.602 118.498C135.602 116.357 135.19 114.237 134.39 112.259C133.589 110.282 132.416 108.485 130.938 106.971C129.459 105.457 127.704 104.256 125.771 103.437C123.839 102.618 121.769 102.196 119.678 102.196Z" fill="#E6E6E6"/>
<path d="M116.016 89.7222H107.929L102.959 79.4527C102.558 78.7326 101.998 78.1166 101.322 77.6533C100.647 77.19 99.8747 76.892 99.0664 76.7827C98.258 76.6734 97.4357 76.7558 96.6641 77.0234C95.8925 77.291 95.1927 77.7365 94.6196 78.3249L82.5396 90.1323C81.5508 91.1559 80.9895 92.527 80.9727 93.9599C80.9727 96.9331 83.0956 97.9925 84.0896 98.5905C91.7554 103.067 94.4511 103.563 94.4511 105.801V117.062C94.4511 117.787 94.7351 118.482 95.2406 118.995C95.7462 119.508 96.4318 119.796 97.1467 119.796C97.8617 119.796 98.5473 119.508 99.0529 118.995C99.5584 118.482 99.8424 117.787 99.8424 117.062V101.683C99.8424 99.4278 94.7206 97.5824 91.7048 95.1902L99.9435 86.3902C103.094 91.2601 104.543 95.1902 106.346 95.1902H116.016C116.731 95.1913 117.418 94.9044 117.924 94.3925C118.43 93.8806 118.715 93.1857 118.716 92.4606C118.718 91.7355 118.435 91.0397 117.93 90.5261C117.425 90.0126 116.74 89.7234 116.025 89.7222H116.016V89.7222Z" fill="#E6E6E6"/>
</svg>
