<svg width="1064" height="937" viewBox="0 0 1064 937" fill="none" xmlns="http://www.w3.org/2000/svg">
<path d="M620.941 110.287C612.893 97.004 603.357 82.8219 588.423 78.4846C571.128 73.4618 553.362 83.4398 538.292 93.2859C493.224 122.733 449.823 154.644 408.288 188.875L408.333 189.391C440.67 187.165 473.007 184.94 505.344 182.714C528.708 181.107 552.874 179.277 573.521 168.247C581.355 164.062 588.993 158.471 597.871 158.081C608.901 157.597 618.518 165.285 626.077 173.317C670.785 220.828 683.723 293.484 733.882 335.227C702.253 257.385 664.488 182.169 620.941 110.287Z" fill="#F2F2F2"/>
<path d="M895.759 513.269C890.815 507.039 888.795 505.58 883.918 499.292C844.209 448.039 806.885 395.054 771.947 340.339C748.216 303.178 725.662 265.304 704.284 226.716C694.106 208.371 684.208 189.882 674.589 171.248C667.124 156.801 659.826 142.267 652.695 127.646C650.655 123.47 648.674 119.275 646.702 115.071C642.056 105.183 637.496 95.2471 632.6 85.4937C627.021 74.3772 620.229 62.7231 609.984 55.2544C605.322 51.716 599.746 49.575 593.91 49.0818C585.57 48.5442 577.874 51.9809 570.641 55.7344C517.661 83.5283 468.211 117.559 423.348 157.098C378.416 196.479 338.254 240.969 303.681 289.662C302.624 291.169 300.122 289.729 301.19 288.212C305.394 282.279 309.681 276.411 314.051 270.606C368.394 198.479 435.027 136.454 510.904 87.3657C523.669 79.1099 536.675 71.2413 549.92 63.7598C556.596 59.9871 563.301 56.2624 570.121 52.7681C576.807 49.341 583.906 46.2594 591.544 46.1442C617.535 45.7411 630.993 75.1163 640.237 94.8823C643.143 101.103 646.083 107.304 649.058 113.487C660.304 136.958 671.982 160.215 684.092 183.258C691.567 197.485 699.205 211.628 707.006 225.689C731.286 269.473 757.091 312.372 784.424 354.383C820.631 410.033 856.55 459.194 897.799 511.234C898.934 512.674 896.904 514.728 895.759 513.269Z" fill="#E4E4E4"/>
<path d="M420.779 142.593C419.269 140.913 417.768 139.233 416.248 137.553C404.262 124.325 391.402 111.25 374.942 103.666C367.094 99.9358 358.527 97.954 349.835 97.8581C340.851 97.887 332.069 100.239 323.767 103.532C319.842 105.096 316.004 106.872 312.224 108.763C307.904 110.933 303.662 113.247 299.439 115.579C291.513 119.957 283.689 124.526 275.968 129.288C260.606 138.763 245.724 148.961 231.324 159.882C223.859 165.546 216.548 171.396 209.391 177.431C202.735 183.037 196.213 188.794 189.825 194.701C188.46 195.958 186.42 193.923 187.786 192.666C189.469 191.101 191.172 189.546 192.875 188.01C197.685 183.671 202.571 179.415 207.535 175.242C216.587 167.62 225.873 160.292 235.393 153.258C250.197 142.315 265.512 132.113 281.335 122.654C289.243 117.931 297.259 113.407 305.384 109.08C307.837 107.775 310.319 106.498 312.83 105.288C318.526 102.421 324.445 100.016 330.529 98.0982C339.148 95.3159 348.266 94.422 357.262 95.4774C365.948 96.7383 374.316 99.6274 381.926 103.992C398.087 113.007 410.621 126.945 422.818 140.548C424.05 141.931 422.02 143.975 420.779 142.593Z" fill="#E4E4E4"/>
<path d="M751.903 279.675L790.628 265.541L809.855 258.523C816.117 256.237 822.364 253.635 828.837 251.998C834.462 250.395 840.435 250.471 846.018 252.217C850.997 254.056 855.554 256.875 859.419 260.507C863.368 264.136 867.041 268.051 870.411 272.221C874.597 277.241 878.721 282.314 882.864 287.371C899.962 308.238 916.948 329.196 933.822 350.244C950.696 371.292 967.457 392.43 984.105 413.657C1000.79 434.936 1017.37 456.304 1033.83 477.76C1035.84 480.389 1037.86 483.019 1039.87 485.65C1040.98 487.104 1043.49 485.671 1042.36 484.196C1025.78 462.524 1009.09 440.94 992.274 419.445C975.421 397.898 958.451 376.443 941.365 355.079C924.279 333.716 907.078 312.445 889.761 291.267C885.447 285.991 881.125 280.721 876.797 275.456C873.146 271.016 869.536 266.527 865.531 262.394C858.18 254.807 848.996 248.102 838.003 247.92C831.539 247.813 825.284 249.86 819.279 252.028C812.805 254.365 806.346 256.746 799.88 259.106L760.885 273.34L751.136 276.898C749.406 277.53 750.153 280.314 751.903 279.675H751.903Z" fill="#E4E4E4"/>
<path d="M369.846 120.311C350.167 110.218 324.965 112.195 306.882 124.805C341.375 130.744 375.491 138.69 409.055 148.603C395.117 140.452 384.214 127.681 369.846 120.311Z" fill="#F2F2F2"/>
<path d="M306.688 124.77L302.899 127.843C304.181 126.768 305.513 125.759 306.882 124.805C306.817 124.794 306.752 124.781 306.688 124.77Z" fill="#F2F2F2"/>
<path d="M857.961 279.817C854.149 275.186 850.028 270.337 844.326 268.457L839.003 268.666C879.525 340.124 934.254 402.564 999.829 452.152C952.54 394.707 905.25 337.262 857.961 279.817Z" fill="#F2F2F2"/>
<path d="M614.25 658.114C614.107 658.114 613.965 658.088 613.83 658.039L511.256 620.436C510.953 620.325 510.707 620.098 510.571 619.806C510.436 619.513 510.422 619.179 510.534 618.877C510.645 618.574 510.872 618.328 511.165 618.193C511.458 618.058 511.793 618.044 512.096 618.155L614.669 655.759C614.938 655.857 615.163 656.047 615.305 656.294C615.447 656.541 615.498 656.831 615.448 657.112C615.398 657.392 615.25 657.647 615.031 657.83C614.812 658.013 614.536 658.114 614.25 658.114H614.25Z" fill="white"/>
<path d="M426.78 587.653C426.637 587.653 426.495 587.628 426.36 587.578L323.786 549.975C323.483 549.864 323.237 549.637 323.102 549.345C322.966 549.052 322.952 548.718 323.064 548.416C323.175 548.113 323.402 547.867 323.695 547.732C323.988 547.597 324.323 547.583 324.626 547.694L427.199 585.298C427.468 585.396 427.693 585.586 427.835 585.833C427.978 586.08 428.028 586.37 427.978 586.651C427.928 586.932 427.781 587.186 427.561 587.369C427.342 587.552 427.066 587.653 426.78 587.653H426.78Z" fill="white"/>
<path d="M235.658 517.192C235.515 517.192 235.373 517.166 235.238 517.117L132.665 479.514C132.515 479.459 132.377 479.375 132.259 479.267C132.142 479.158 132.047 479.028 131.98 478.884C131.913 478.739 131.875 478.582 131.868 478.423C131.862 478.264 131.887 478.104 131.942 477.955C131.997 477.805 132.081 477.668 132.189 477.55C132.298 477.433 132.428 477.338 132.573 477.271C132.718 477.204 132.875 477.166 133.035 477.16C133.195 477.153 133.354 477.178 133.504 477.233L236.078 514.837C236.346 514.935 236.571 515.125 236.713 515.372C236.856 515.619 236.906 515.909 236.856 516.19C236.806 516.47 236.659 516.725 236.44 516.908C236.221 517.091 235.944 517.192 235.658 517.192Z" fill="white"/>
<path d="M216.439 334.549C212.163 333.595 207.832 332.841 203.556 332.316L202.933 332.24C174.544 328.866 150.576 340.692 147.184 359.749L146.581 363.197C146.204 365.378 145.798 367.722 145.315 370.316C145.082 371.596 146.371 372.906 148.246 373.324L831.037 525.643C879.252 536.046 927.313 546.324 973.875 556.188C982.588 558.153 991.415 559.578 1000.3 560.454C1013.61 561.578 1023.35 560.098 1030.08 555.928L1030.08 555.929C1038.45 550.762 1040.56 542.375 1042.28 532.751C1045.74 513.318 1049.43 492.913 1053.11 472.57C1056.35 454.641 1059.58 436.76 1062.64 419.634C1064.44 409.466 1065.42 400.356 1059.14 391.825C1052.33 382.594 1037.74 375.431 1015.78 370.531C1015.51 370.472 1015.25 370.414 1014.98 370.355C946.085 355.282 871.796 367.257 830.12 400.155C825.32 403.944 820.705 408.116 816.24 412.151C809.636 418.402 802.598 424.18 795.178 429.441C791.081 432.256 786.735 434.69 782.194 436.714C781.881 436.865 781.527 437.023 781.158 437.166C780.3 437.552 779.414 437.911 778.559 438.216C773.584 440.131 768.42 441.514 763.153 442.343L762.628 442.422C762.231 442.49 761.803 442.552 761.378 442.6C758.359 443.005 755.319 443.244 752.274 443.315C739.112 443.691 724.78 441.287 709.678 436.17C695.741 431.393 682.427 424.969 670.019 417.035C656.855 408.635 644.895 399.156 633.328 389.989C628.247 385.961 622.992 381.797 617.712 377.784C616.719 377.029 615.742 376.29 614.749 375.546C608.281 370.724 602.36 366.612 596.645 362.975C582.618 354 567.398 347.034 551.43 342.281C534.553 337.385 519.013 336.051 505.255 338.302C501.434 338.925 497.667 339.847 493.991 341.06C477.042 346.644 464.877 357.752 453.112 368.495C438.478 381.857 423.345 395.675 398.806 399.114C370.487 403.091 333.27 390.511 307.88 377.41C299.897 373.29 292 368.839 284.363 364.532C281.278 362.792 278.19 361.059 275.098 359.332C269.019 355.949 264.022 353.28 259.371 350.931L257.901 350.185C257.082 349.775 256.263 349.365 255.425 348.962C249.885 346.243 244.682 343.915 239.508 341.843L238.285 341.346C235.824 340.393 233.515 339.541 231.238 338.75L230.33 338.435C225.773 336.89 221.136 335.592 216.439 334.549Z" fill="#F2F2F2"/>
<path d="M1031.09 563.333C1031 563.333 1030.92 563.324 1030.83 563.307L130.004 373.539C129.689 373.47 129.415 373.281 129.24 373.011C129.065 372.742 129.005 372.415 129.071 372.1C129.138 371.786 129.326 371.511 129.595 371.335C129.864 371.159 130.191 371.097 130.506 371.161L1031.34 560.93C1031.63 560.991 1031.89 561.16 1032.07 561.403C1032.25 561.646 1032.33 561.945 1032.3 562.244C1032.26 562.543 1032.12 562.819 1031.9 563.02C1031.68 563.222 1031.39 563.333 1031.09 563.333Z" fill="white"/>
<path d="M844.223 123.914C878.511 123.914 906.307 96.175 906.307 61.9571C906.307 27.7391 878.511 0 844.223 0C809.935 0 782.139 27.7391 782.139 61.9571C782.139 96.175 809.935 123.914 844.223 123.914Z" fill="#FF6584"/>
<path d="M956.261 14.4206C926.172 10.3618 891.821 26.5917 884.023 55.8754C882.057 50.6688 878.484 46.2204 873.82 43.173C869.155 40.1256 863.641 38.6369 858.073 38.9221C852.505 39.2072 847.172 41.2514 842.845 44.7593C838.517 48.2671 835.419 53.0571 833.998 58.4372L837.443 60.8992C901.922 74.8144 968.668 74.5132 1033.02 60.0168C1012.09 38.0659 986.35 18.4793 956.261 14.4206Z" fill="#F0F0F0"/>
<path d="M827.223 97.0302C797.135 92.9715 762.784 109.201 754.985 138.485C753.02 133.278 749.447 128.83 744.782 125.783C740.118 122.735 734.603 121.247 729.035 121.532C723.467 121.817 718.134 123.861 713.807 127.369C709.479 130.877 706.381 135.667 704.96 141.047L708.405 143.509C772.884 157.424 839.63 157.123 903.981 142.626C883.052 120.675 857.312 101.089 827.223 97.0302Z" fill="#F0F0F0"/>
<path d="M881.22 594.16C879.995 592.931 879.054 591.449 878.465 589.818C877.876 588.188 877.653 586.448 877.81 584.722C877.968 582.995 878.503 581.324 879.377 579.827C880.252 578.329 881.445 577.041 882.872 576.053L863.955 482.284L884.845 488.977L899.988 579.676C901.492 582.179 902.023 585.146 901.482 588.013C900.94 590.881 899.364 593.452 897.05 595.237C894.737 597.022 891.848 597.899 888.93 597.7C886.012 597.502 883.269 596.242 881.22 594.16Z" fill="#9E616A"/>
<path d="M853.287 395.768L866.249 386.004C866.249 386.004 877.683 385.195 879.709 405.774C881.734 426.352 885.892 466.455 885.892 466.455L905.726 558.131L878.27 564.145L857.026 465.211L844.282 435.831L853.287 395.768Z" fill="#2F2E41"/>
<path d="M874.656 545.465L801.616 544.251L795.53 494.442H874.656V545.465Z" fill="#9E616A"/>
<path d="M807.133 850.187L790.272 850.186L782.25 785.28L807.135 785.282L807.133 850.187Z" fill="#9E616A"/>
<path d="M914.556 826.878L897.694 826.76L890.129 761.8L912.059 766.821L914.556 826.878Z" fill="#9E616A"/>
<path d="M861.818 451.547L865.638 461.46L864.875 471.373L790.1 497.219L793.81 453.834L802.216 443.921L861.818 451.547Z" fill="#FFB6B6"/>
<path d="M829.74 362.337C844.489 362.337 856.446 350.405 856.446 335.685C856.446 320.966 844.489 309.034 829.74 309.034C814.99 309.034 803.033 320.966 803.033 335.685C803.033 350.405 814.99 362.337 829.74 362.337Z" fill="#9E616A"/>
<path d="M814.675 882.138H802.711L800.575 870.865L795.105 882.138H763.372C761.851 882.138 760.369 881.653 759.144 880.753C757.919 879.854 757.014 878.587 756.561 877.137C756.108 875.688 756.132 874.133 756.628 872.698C757.124 871.263 758.066 870.023 759.318 869.161L784.66 851.695V840.298L811.315 841.886L814.675 882.138Z" fill="#2F2E41"/>
<path d="M923.402 858.892L911.438 858.808L909.381 847.521L903.832 858.755L872.1 858.534C870.579 858.523 869.101 858.028 867.882 857.119C866.663 856.211 865.767 854.938 865.324 853.486C864.882 852.033 864.916 850.478 865.422 849.046C865.928 847.615 866.88 846.382 868.137 845.529L893.601 828.24L893.681 816.844L920.324 818.618L923.402 858.892Z" fill="#2F2E41"/>
<path d="M919.802 780.683L907.524 705.825L892.916 602.563C903.614 582.736 879.526 521.168 879.526 521.168L876.125 521.331L799.165 535.82L799.181 535.747C783.44 578.592 778.225 599.758 779.088 645.385L782.189 809.401H781.216C779.602 809.401 778.054 810.041 776.912 811.18C775.771 812.319 775.129 813.864 775.129 815.475C775.129 817.086 775.771 818.631 776.912 819.77C778.054 820.909 779.602 821.549 781.216 821.549H811.649C813.264 821.549 814.812 820.909 815.953 819.77C817.095 818.631 817.736 817.086 817.736 815.475C817.736 813.864 817.095 812.319 815.953 811.18C814.812 810.041 813.264 809.401 811.649 809.401H810.865L838.799 614.106L862.483 696.106L889.264 779.93C879.526 777.501 881.038 783.13 881.038 786.319C881.038 787.93 881.679 789.475 882.82 790.614C883.962 791.753 885.51 792.393 887.124 792.393H917.558C918.973 792.394 920.345 791.903 921.436 791.003C922.528 790.104 923.27 788.852 923.536 787.465C923.802 786.078 923.575 784.641 922.893 783.403C922.212 782.165 921.118 781.203 919.802 780.683Z" fill="#2F2E41"/>
<path d="M885.518 524.358L883.084 500.061C882.831 499.07 882.27 498.184 881.482 497.53C880.693 496.877 879.718 496.489 878.695 496.423C877.681 484.848 873.413 434.916 873.158 432.739L873.148 432.647L871.207 391.272C871.136 389.769 870.514 388.345 869.458 387.272C868.402 386.198 866.986 385.55 865.482 385.452L855.231 384.784C855.091 384.779 854.957 384.72 854.86 384.619C854.762 384.518 854.707 384.383 854.707 384.243C854.707 383.113 854.484 381.994 854.051 380.951C853.618 379.907 852.983 378.958 852.182 378.16C851.382 377.361 850.432 376.727 849.386 376.295C848.34 375.862 847.219 375.64 846.087 375.64H815.737C813.771 375.641 811.873 376.357 810.4 377.656C808.926 378.954 807.977 380.744 807.732 382.691C807.719 382.825 807.655 382.949 807.554 383.038C807.453 383.127 807.322 383.175 807.187 383.172L807.183 383.172C803.735 383.101 800.375 384.266 797.714 386.456C795.052 388.646 793.266 391.715 792.678 395.107C788.529 419.198 780.214 473.877 784.325 504.275C785.756 514.858 782.671 506.476 782.13 515.33C782.076 516.186 782.192 517.044 782.471 517.855C782.75 518.665 783.187 519.413 783.756 520.055C781.25 520.782 780.279 523.483 780.922 526.028L780.388 525.896C780.704 527.146 781.504 528.219 782.613 528.88C783.721 529.541 785.048 529.735 786.3 529.42L879.552 505.961C882.16 505.305 886.176 526.96 885.518 524.358Z" fill="#2F2E41"/>
<path d="M782.879 594.16C784.104 592.931 785.045 591.449 785.634 589.819C786.223 588.188 786.446 586.448 786.289 584.722C786.131 582.995 785.596 581.325 784.722 579.827C783.847 578.329 782.654 577.041 781.227 576.053L800.144 482.284L779.254 488.977L764.111 579.676C762.607 582.179 762.076 585.146 762.617 588.014C763.159 590.882 764.735 593.452 767.049 595.237C769.362 597.022 772.251 597.899 775.169 597.7C778.087 597.502 780.83 596.242 782.879 594.16Z" fill="#9E616A"/>
<path d="M810.812 395.768L797.85 386.004C797.85 386.004 786.416 385.195 784.391 405.774C782.366 426.352 778.207 466.455 778.207 466.455L758.373 558.131L785.829 564.145L807.073 465.211L819.817 435.831L810.812 395.768Z" fill="#2F2E41"/>
<path d="M858.338 311.987C863.314 313.465 867.955 309.312 871.418 305.377L870.187 306.834C878.333 312.559 883.204 321.886 886.365 331.327C889.525 340.758 891.288 350.636 894.855 359.931C898.423 369.216 904.18 378.199 912.994 382.831C924.801 389.035 939.268 386.214 951.827 381.738C951.993 381.676 952.15 381.624 952.317 381.561C947.23 372.08 944.115 361.671 943.159 350.959C948.325 361.024 955.775 369.746 964.917 376.43C973.122 372.707 981.013 368.328 988.51 363.335C993.361 360.098 998.471 355.913 999.035 350.115C999.608 344.359 995.301 339.103 990.221 336.334C985.141 333.565 979.3 332.628 973.751 330.963C968.213 329.308 962.559 326.591 959.649 321.594C952.943 310.103 964.228 293.896 957.031 282.696C953.485 277.189 946.601 274.982 940.217 273.452C930.474 271.127 920.584 269.461 910.616 268.466C901.865 267.592 892.821 267.269 884.498 270.08C876.174 272.89 868.623 279.417 866.839 288.015C861.979 290.565 856.836 293.386 854.229 298.226C851.621 303.056 853.071 310.426 858.338 311.987Z" fill="#2F2E41"/>
<path d="M865.765 310.051C870.53 316.007 873.123 322.448 873.123 326.305C883.02 344.356 868.867 359.862 850.778 369.739C843.563 373.699 835.232 375.148 827.1 373.858L826.344 370.634L825.318 373.538C825.318 373.538 813.541 412.357 809.656 414.634C811.131 407.726 812.819 375.739 813.64 368.997C814.776 359.82 810.815 346.159 807.959 337.851C806.187 332.731 805.278 327.353 805.268 321.936V321.699L802.486 330.616L792.359 326.305C794.243 315.52 792.359 303.277 814.947 304.338C827.164 295.954 837.923 294.676 846.76 297.054C847.901 295.295 854.477 298.591 856.377 297.664" fill="#2F2E41"/>
<path d="M891.053 499.576C890.624 503.399 888.927 506.97 886.232 509.721C883.537 512.472 879.998 514.246 876.177 514.761L821.19 522.196C816.644 522.806 812.04 521.59 808.39 518.816C804.741 516.042 802.344 511.936 801.725 507.399L793.8 448.917C793.284 445.114 794.056 441.249 795.992 437.934L795.614 435.092C794.053 434.524 792.676 433.541 791.634 432.25C790.591 430.958 789.922 429.407 789.699 427.763C789.476 426.12 789.707 424.447 790.368 422.925C791.029 421.403 792.093 420.09 793.447 419.129L800.24 387.725C800.149 387.052 800.2 386.368 800.39 385.716C800.579 385.064 800.904 384.459 801.342 383.94C801.78 383.42 802.321 382.998 802.933 382.7C803.544 382.402 804.211 382.235 804.89 382.209C806.126 382.196 807.323 382.639 808.251 383.453C809.179 384.267 809.773 385.395 809.918 386.619L810.539 391.236C811.368 397.338 814.488 402.898 819.268 406.792C824.048 410.686 830.132 412.623 836.288 412.213C842.445 411.802 848.216 409.075 852.434 404.581C856.653 400.087 859.004 394.162 859.013 388.004C859.012 386.903 858.939 385.803 858.794 384.712L858.185 380.168C857.987 378.906 858.276 377.616 858.995 376.558C859.714 375.5 860.808 374.754 862.056 374.471C862.707 374.348 863.375 374.358 864.021 374.501C864.667 374.645 865.277 374.918 865.814 375.305C866.351 375.691 866.803 376.183 867.142 376.75C867.482 377.317 867.703 377.947 867.79 378.601L871.722 407.515C873.885 407.366 876.03 407.991 877.773 409.277C879.516 410.563 880.742 412.427 881.233 414.534C881.724 416.641 881.447 418.854 880.451 420.775C879.456 422.697 877.807 424.202 875.8 425.021C877.768 426.381 879.431 428.136 880.682 430.173C881.933 432.21 882.746 434.485 883.068 436.853L891.005 495.348C891.197 496.75 891.213 498.17 891.053 499.576Z" fill="#6C63FF"/>
<path d="M794.83 436.378C794.766 435.899 794.894 435.414 795.188 435.03C795.481 434.646 795.915 434.393 796.395 434.328L871.342 422.863C871.58 422.831 871.821 422.845 872.053 422.907C872.285 422.968 872.502 423.074 872.693 423.219C872.884 423.364 873.044 423.545 873.165 423.752C873.285 423.958 873.364 424.187 873.396 424.424C873.428 424.661 873.413 424.902 873.352 425.134C873.291 425.365 873.185 425.582 873.039 425.773C872.894 425.963 872.713 426.123 872.506 426.243C872.298 426.364 872.069 426.442 871.832 426.474L796.885 437.939C796.405 438.004 795.919 437.875 795.534 437.583C795.149 437.29 794.896 436.857 794.83 436.378Z" fill="#3F3D56"/>
<path d="M803.589 467.078L801.112 448.811C800.921 447.402 801.299 445.975 802.162 444.843C803.025 443.712 804.303 442.969 805.715 442.779L877.296 433.641C878.708 433.45 880.139 433.827 881.272 434.688C882.406 435.55 883.15 436.826 883.341 438.235L885.818 456.501C886.009 457.911 885.632 459.338 884.768 460.469C883.905 461.6 882.627 462.343 881.215 462.534L852.623 466.459C852.682 466.654 852.73 466.852 852.766 467.053L855.296 485.713L879.423 482.454C879.582 482.433 879.743 482.442 879.898 482.483C880.053 482.524 880.198 482.594 880.325 482.691C880.453 482.787 880.56 482.908 880.64 483.046C880.721 483.184 880.773 483.337 880.795 483.495C880.816 483.653 880.806 483.814 880.765 483.969C880.724 484.123 880.653 484.268 880.556 484.395C880.459 484.522 880.338 484.628 880.2 484.709C880.061 484.789 879.908 484.841 879.75 484.862L855.623 488.121L844.766 489.587L821.845 492.683C821.526 492.725 821.202 492.64 820.946 492.444C820.689 492.249 820.521 491.96 820.477 491.641C820.434 491.322 820.519 490.999 820.715 490.743C820.91 490.487 821.199 490.318 821.519 490.275L844.439 487.179L841.909 468.519C841.89 468.316 841.883 468.113 841.888 467.909L809.634 471.672C808.222 471.862 806.792 471.485 805.658 470.624C804.525 469.762 803.78 468.487 803.589 467.078Z" fill="#3F3D56"/>
<path d="M522.237 937C521.936 937 521.646 936.889 521.423 936.688L0.402463 468.011C0.163128 467.795 0.0194112 467.493 0.00285703 467.172C-0.0136971 466.85 0.098271 466.535 0.314175 466.296C0.53008 466.057 0.832283 465.913 1.15442 465.896C1.47655 465.879 1.7923 465.99 2.03233 466.205L523.052 934.882C523.235 935.047 523.364 935.263 523.422 935.502C523.479 935.741 523.462 935.992 523.374 936.221C523.286 936.45 523.13 936.648 522.927 936.787C522.724 936.926 522.483 937 522.237 937Z" fill="white"/>
<path d="M794.981 463.568C795.007 463.217 794.957 462.865 794.835 462.535C794.713 462.205 794.521 461.905 794.274 461.656C794.026 461.406 793.727 461.212 793.397 461.087C793.068 460.962 792.716 460.909 792.364 460.932C792.233 460.936 792.103 460.953 791.975 460.98L776.563 464.455C776.219 464.538 775.896 464.692 775.615 464.908C775.334 465.123 775.101 465.395 774.932 465.706C774.706 465.714 774.481 465.747 774.262 465.803C773.294 466.022 772.452 466.616 771.922 467.455C771.393 468.293 771.219 469.307 771.438 470.274C771.658 471.24 772.253 472.08 773.093 472.609C773.933 473.137 774.949 473.311 775.918 473.092C776.469 472.964 776.985 472.715 777.427 472.363L782.65 487.039C782.911 487.498 783.314 487.862 783.799 488.074C784.283 488.287 784.824 488.337 785.34 488.217L795.359 485.957C795.871 485.838 796.331 485.559 796.675 485.162C797.018 484.765 797.226 484.269 797.27 483.746L794.981 463.568ZM775.687 472.047C775.344 472.126 774.989 472.136 774.642 472.077C774.295 472.018 773.963 471.892 773.665 471.705C773.368 471.518 773.11 471.275 772.906 470.989C772.702 470.702 772.557 470.379 772.479 470.037C772.401 469.695 772.391 469.34 772.449 468.994C772.508 468.648 772.635 468.317 772.822 468.02C773.009 467.723 773.253 467.465 773.54 467.262C773.827 467.059 774.151 466.914 774.494 466.836C774.542 466.824 774.591 466.836 774.64 466.824C774.636 467.266 774.749 467.702 774.968 468.087L776.88 471.416C776.547 471.731 776.134 471.949 775.687 472.047Z" fill="#CCCCCC"/>
<path d="M792.364 460.931C792.51 462.875 789.175 465.111 784.707 465.997C780.604 466.836 776.928 466.253 775.893 464.722C776.101 464.599 776.327 464.508 776.563 464.455L791.974 460.98C792.103 460.953 792.233 460.936 792.364 460.931Z" fill="#E6E6E6"/>
<path d="M784.309 499.751L779.835 490.462C777.214 485.02 782.013 479.23 790.533 477.556L801.031 475.789L805.423 506.405L804.514 506.584C795.994 508.258 786.93 505.193 784.309 499.751Z" fill="#6C63FF"/>
<g opacity="0.2">
<path opacity="0.2" d="M891.053 499.576C890.624 503.399 888.927 506.97 886.232 509.721C883.537 512.472 879.998 514.246 876.178 514.761L821.191 522.196C817.924 522.637 814.599 522.137 811.608 520.755C808.617 519.373 806.083 517.167 804.306 514.397C805.856 512.527 807.776 510.996 809.946 509.901C812.116 508.805 814.49 508.169 816.918 508.031C821.641 507.788 826.218 509.355 830.844 510.23C842.029 512.333 853.599 510.418 863.505 504.824C867.802 502.333 871.673 499.151 876.397 497.377C881.12 495.615 887.219 495.676 890.639 499.114C890.787 499.259 890.925 499.413 891.053 499.576Z" fill="white"/>
</g>
</svg>
