<svg width="906" height="223" viewBox="0 0 906 223" fill="none" xmlns="http://www.w3.org/2000/svg">
<path d="M50.7369 196.316H861.797" stroke="black"/>
<path d="M50.7369 203.006V196.316" stroke="black"/>
<path d="M53.4263 210.368C53.4263 211.637 53.2095 212.581 52.7759 213.198C52.3423 213.815 51.6646 214.124 50.7427 214.124C49.8326 214.124 49.1587 213.823 48.7212 213.221C48.2837 212.616 48.0572 211.713 48.0416 210.514V209.067C48.0416 207.813 48.2584 206.881 48.6919 206.272C49.1255 205.663 49.8052 205.358 50.731 205.358C51.649 205.358 52.3248 205.653 52.7584 206.243C53.1919 206.829 53.4146 207.735 53.4263 208.961V210.368ZM52.3423 208.885C52.3423 207.967 52.2134 207.299 51.9556 206.881C51.6978 206.459 51.2896 206.249 50.731 206.249C50.1763 206.249 49.772 206.458 49.5181 206.875C49.2642 207.293 49.1334 207.936 49.1255 208.803V210.538C49.1255 211.459 49.2584 212.141 49.524 212.583C49.7935 213.02 50.1998 213.239 50.7427 213.239C51.2779 213.239 51.6744 213.032 51.9322 212.618C52.1939 212.204 52.3306 211.551 52.3423 210.661V208.885Z" fill="black"/>
<path d="M166.603 203.006V196.316" stroke="black"/>
<path d="M167.505 214.006H166.415V206.782L164.23 207.584V206.6L167.335 205.434H167.505V214.006Z" fill="black"/>
<path d="M282.468 203.006V196.316" stroke="black"/>
<path d="M285.398 214.006H279.808V213.227L282.761 209.946C283.199 209.45 283.5 209.047 283.664 208.739C283.832 208.426 283.916 208.104 283.916 207.772C283.916 207.327 283.781 206.961 283.511 206.676C283.242 206.391 282.882 206.249 282.433 206.249C281.894 206.249 281.474 206.403 281.173 206.711C280.877 207.016 280.728 207.442 280.728 207.989H279.644C279.644 207.204 279.896 206.569 280.4 206.084C280.908 205.6 281.586 205.358 282.433 205.358C283.226 205.358 283.853 205.567 284.314 205.985C284.775 206.399 285.005 206.952 285.005 207.643C285.005 208.483 284.47 209.483 283.4 210.643L281.115 213.122H285.398V214.006Z" fill="black"/>
<path d="M398.334 203.006V196.316" stroke="black"/>
<path d="M397.25 209.213H398.064C398.576 209.206 398.978 209.071 399.271 208.809C399.564 208.547 399.711 208.194 399.711 207.749C399.711 206.749 399.213 206.249 398.217 206.249C397.748 206.249 397.373 206.383 397.092 206.653C396.814 206.918 396.676 207.272 396.676 207.713H395.592C395.592 207.038 395.838 206.477 396.33 206.032C396.826 205.583 397.455 205.358 398.217 205.358C399.021 205.358 399.652 205.571 400.109 205.997C400.566 206.422 400.795 207.014 400.795 207.772C400.795 208.143 400.674 208.502 400.431 208.85C400.193 209.198 399.867 209.458 399.453 209.629C399.922 209.778 400.283 210.024 400.537 210.368C400.795 210.711 400.924 211.131 400.924 211.627C400.924 212.393 400.674 213 400.174 213.45C399.674 213.899 399.023 214.124 398.223 214.124C397.422 214.124 396.769 213.907 396.265 213.473C395.765 213.04 395.515 212.467 395.515 211.756H396.605C396.605 212.206 396.752 212.565 397.045 212.834C397.338 213.104 397.73 213.239 398.223 213.239C398.746 213.239 399.146 213.102 399.424 212.829C399.701 212.555 399.84 212.163 399.84 211.651C399.84 211.155 399.687 210.774 399.383 210.508C399.078 210.243 398.639 210.106 398.064 210.098H397.25V209.213Z" fill="black"/>
<path d="M514.2 203.006V196.316" stroke="black"/>
<path d="M516.116 211.141H517.299V212.026H516.116V214.006H515.026V212.026H511.141V211.387L514.961 205.475H516.116V211.141ZM512.372 211.141H515.026V206.958L514.897 207.192L512.372 211.141Z" fill="black"/>
<path d="M630.065 203.006V196.316" stroke="black"/>
<path d="M627.904 209.729L628.337 205.475H632.708V206.477H629.257L628.999 208.803C629.417 208.557 629.892 208.434 630.423 208.434C631.2 208.434 631.818 208.692 632.275 209.208C632.732 209.719 632.96 210.413 632.96 211.288C632.96 212.167 632.722 212.86 632.245 213.368C631.773 213.872 631.111 214.124 630.259 214.124C629.505 214.124 628.89 213.915 628.413 213.497C627.937 213.079 627.665 212.5 627.599 211.762H628.624C628.691 212.25 628.864 212.62 629.146 212.87C629.427 213.116 629.798 213.239 630.259 213.239C630.763 213.239 631.157 213.067 631.443 212.723C631.732 212.379 631.876 211.905 631.876 211.299C631.876 210.729 631.72 210.272 631.407 209.928C631.099 209.581 630.687 209.407 630.171 209.407C629.698 209.407 629.327 209.51 629.058 209.717L628.771 209.952L627.904 209.729Z" fill="black"/>
<path d="M745.931 203.006V196.316" stroke="black"/>
<path d="M747.525 205.469V206.389H747.326C746.482 206.405 745.81 206.655 745.31 207.139C744.81 207.624 744.521 208.305 744.443 209.184C744.892 208.668 745.505 208.411 746.283 208.411C747.025 208.411 747.617 208.672 748.058 209.196C748.503 209.719 748.726 210.395 748.726 211.223C748.726 212.102 748.486 212.805 748.005 213.333C747.529 213.86 746.888 214.124 746.083 214.124C745.267 214.124 744.605 213.811 744.097 213.186C743.589 212.557 743.335 211.749 743.335 210.76V210.344C743.335 208.774 743.669 207.575 744.337 206.747C745.009 205.915 746.007 205.489 747.331 205.469H747.525ZM746.101 209.313C745.73 209.313 745.388 209.424 745.076 209.647C744.763 209.87 744.546 210.149 744.425 210.485V210.883C744.425 211.586 744.583 212.153 744.9 212.583C745.216 213.012 745.611 213.227 746.083 213.227C746.572 213.227 746.954 213.047 747.232 212.688C747.513 212.329 747.654 211.858 747.654 211.276C747.654 210.69 747.511 210.217 747.226 209.858C746.945 209.495 746.57 209.313 746.101 209.313Z" fill="black"/>
<path d="M861.797 203.006V196.316" stroke="black"/>
<path d="M864.644 206.084L861.111 214.006H859.974L863.496 206.366H858.879V205.475H864.644V206.084Z" fill="black"/>
<path d="M45.8646 17.4969V195.897" stroke="black"/>
<path d="M37.7267 195.897H45.8645" stroke="black"/>
<path d="M30.2657 189.878C30.2657 191.148 30.0489 192.091 29.6153 192.708C29.1817 193.325 28.504 193.634 27.5821 193.634C26.6719 193.634 25.9981 193.333 25.5606 192.732C25.1231 192.126 24.8965 191.224 24.8809 190.025V188.577C24.8809 187.323 25.0977 186.392 25.5313 185.782C25.9649 185.173 26.6446 184.868 27.5704 184.868C28.4883 184.868 29.1641 185.163 29.5977 185.753C30.0313 186.339 30.254 187.245 30.2657 188.472V189.878ZM29.1817 188.396C29.1817 187.478 29.0528 186.81 28.795 186.392C28.5372 185.97 28.129 185.759 27.5704 185.759C27.0157 185.759 26.6114 185.968 26.3575 186.386C26.1036 186.804 25.9727 187.447 25.9649 188.314V190.048C25.9649 190.97 26.0977 191.652 26.3633 192.093C26.6329 192.531 27.0391 192.749 27.5821 192.749C28.1172 192.749 28.5137 192.542 28.7715 192.128C29.0333 191.714 29.17 191.062 29.1817 190.171V188.396Z" fill="black"/>
<path d="M37.7267 151.297H45.8645" stroke="black"/>
<path d="M29.4922 146.052H30.6758V146.936H29.4922V148.917H28.4024V146.936H24.5176V146.298L28.3379 140.386H29.4922V146.052ZM25.7481 146.052H28.4024V141.868L28.2735 142.102L25.7481 146.052Z" fill="black"/>
<path d="M37.7267 106.697H45.8645" stroke="black"/>
<path d="M30.0899 98.0122C30.0899 98.438 29.9766 98.8169 29.7501 99.1489C29.5274 99.481 29.2247 99.7407 28.8419 99.9282C29.2872 100.12 29.6387 100.399 29.8965 100.766C30.1583 101.133 30.2891 101.549 30.2891 102.014C30.2891 102.752 30.0391 103.34 29.5391 103.778C29.043 104.215 28.3887 104.434 27.5762 104.434C26.7559 104.434 26.0977 104.215 25.6016 103.778C25.1094 103.336 24.8633 102.749 24.8633 102.014C24.8633 101.553 24.9883 101.137 25.2383 100.766C25.4922 100.395 25.8419 100.114 26.2872 99.9224C25.9083 99.7349 25.6094 99.4751 25.3907 99.1431C25.1719 98.811 25.0626 98.4341 25.0626 98.0122C25.0626 97.2935 25.293 96.7231 25.754 96.3013C26.2149 95.8794 26.8223 95.6685 27.5762 95.6685C28.3262 95.6685 28.9317 95.8794 29.3926 96.3013C29.8575 96.7231 30.0899 97.2935 30.0899 98.0122ZM29.2051 101.991C29.2051 101.514 29.0528 101.125 28.7481 100.825C28.4473 100.524 28.0528 100.374 27.5645 100.374C27.0762 100.374 26.6836 100.522 26.3868 100.819C26.0938 101.116 25.9473 101.506 25.9473 101.991C25.9473 102.475 26.0899 102.856 26.3751 103.133C26.6641 103.411 27.0645 103.549 27.5762 103.549C28.084 103.549 28.4825 103.411 28.7715 103.133C29.0606 102.852 29.2051 102.471 29.2051 101.991ZM27.5762 96.5591C27.1504 96.5591 26.8047 96.6919 26.5391 96.9575C26.2774 97.2192 26.1465 97.5767 26.1465 98.0298C26.1465 98.4634 26.2754 98.8149 26.5333 99.0845C26.795 99.3501 27.1426 99.4829 27.5762 99.4829C28.0098 99.4829 28.3555 99.3501 28.6133 99.0845C28.8751 98.8149 29.0059 98.4634 29.0059 98.0298C29.0059 97.5962 28.8711 97.2427 28.6016 96.9692C28.3321 96.6958 27.9903 96.5591 27.5762 96.5591Z" fill="black"/>
<path d="M37.7268 62.0969H45.8645" stroke="black"/>
<path d="M21.7403 59.7169H20.6504V52.4923L18.4649 53.295V52.3107L21.5704 51.1447H21.7403V59.7169ZM30.5059 59.7169H24.9161V58.9376L27.8692 55.6564C28.3067 55.1603 28.6075 54.7579 28.7715 54.4493C28.9395 54.1368 29.0235 53.8146 29.0235 53.4825C29.0235 53.0372 28.8887 52.672 28.6192 52.3868C28.3497 52.1017 27.9903 51.9591 27.5411 51.9591C27.002 51.9591 26.5821 52.1134 26.2813 52.422C25.9844 52.7267 25.836 53.1525 25.836 53.6993H24.752C24.752 52.9142 25.0039 52.2794 25.5079 51.795C26.0157 51.3107 26.6934 51.0685 27.5411 51.0685C28.334 51.0685 28.961 51.2775 29.4219 51.6954C29.8829 52.1095 30.1133 52.6622 30.1133 53.3536C30.1133 54.1935 29.5782 55.1935 28.5079 56.3536L26.2227 58.8322H30.5059V59.7169Z" fill="black"/>
<path d="M37.7268 17.4969H45.8645" stroke="black"/>
<path d="M21.7403 19.5769H20.6504V12.3523L18.4649 13.155V12.1707L21.5704 11.0046H21.7403V19.5769ZM29.17 11.0398V11.9597H28.9707C28.127 11.9753 27.4551 12.2253 26.9551 12.7097C26.4551 13.1941 26.1661 13.8757 26.0879 14.7546C26.5372 14.239 27.1504 13.9812 27.9278 13.9812C28.67 13.9812 29.2618 14.2429 29.7032 14.7664C30.1485 15.2898 30.3711 15.9656 30.3711 16.7937C30.3711 17.6726 30.1309 18.3757 29.6504 18.9031C29.1739 19.4304 28.5332 19.6941 27.7286 19.6941C26.9122 19.6941 26.25 19.3816 25.7422 18.7566C25.2344 18.1277 24.9805 17.3191 24.9805 16.3308V15.9148C24.9805 14.3445 25.3145 13.1453 25.9825 12.3171C26.6543 11.4851 27.6524 11.0593 28.9766 11.0398H29.17ZM27.7461 14.8835C27.375 14.8835 27.0332 14.9949 26.7207 15.2175C26.4082 15.4402 26.1914 15.7195 26.0704 16.0554V16.4539C26.0704 17.157 26.2286 17.7234 26.545 18.1531C26.8614 18.5828 27.2559 18.7976 27.7286 18.7976C28.2168 18.7976 28.5997 18.6179 28.877 18.2585C29.1582 17.8992 29.2989 17.4285 29.2989 16.8464C29.2989 16.2605 29.1563 15.7878 28.8711 15.4285C28.5899 15.0652 28.2149 14.8835 27.7461 14.8835Z" fill="black"/>
<path d="M45.9899 74.1427L161.856 51.8427L277.721 118.743L393.587 196.793L509.453 29.5427L625.318 96.4427H741.184L857.05 62.9927" stroke="#E6563E"/>
</svg>
