<svg width="174" height="174" viewBox="0 0 174 174" fill="none" xmlns="http://www.w3.org/2000/svg">
<path d="M128.76 58.3747C125.153 58.3747 122.166 68.8766 121.588 82.6468H52.1938C51.615 68.8766 48.6286 58.3747 45.0214 58.3747C40.9999 58.3747 37.7397 71.4151 37.7397 87.5012C37.7397 103.587 40.9999 116.628 45.0214 116.628C48.6286 116.628 51.615 106.126 52.1938 92.3555H121.588C122.166 106.126 125.153 116.628 128.76 116.628C132.781 116.628 136.042 103.587 136.042 87.5012C136.042 71.4152 132.782 58.3747 128.76 58.3747Z" fill="#E6E6E6"/>
<path d="M162.562 44.4978C152.277 26.0635 135.625 12.0102 115.724 4.96932C95.8237 -2.07152 74.0389 -1.61709 54.4491 6.24753C34.8593 14.1121 18.8078 28.8476 9.30027 47.6948C-0.207319 66.5421 -2.51905 88.2086 2.79792 108.638C8.11489 129.067 20.696 146.857 38.1854 158.678C55.6749 170.499 76.8733 175.539 97.8116 172.856C118.75 170.172 137.992 159.949 151.935 144.099C165.879 128.25 173.567 107.862 173.56 86.7525C173.555 71.9605 169.77 57.4152 162.562 44.4978ZM86.7526 166.607C65.7131 166.5 45.575 158.052 30.755 143.118C15.9349 128.183 7.64285 107.981 7.69729 86.9412C7.75173 65.9015 16.1483 45.7422 31.0453 30.8845C45.9424 16.0269 66.1239 7.68389 87.1637 7.68525C108.204 7.68662 128.384 16.0323 143.279 30.8918C158.174 45.7514 166.568 65.9118 166.62 86.9516C166.672 107.991 158.377 128.193 143.555 143.125C128.733 158.058 108.594 166.503 87.5542 166.607C87.287 166.609 87.0198 166.609 86.7526 166.607Z" fill="#E6E6E6"/>
<path d="M86.7949 173.995C70.2547 174.003 54.0544 169.299 40.0906 160.433C39.3932 159.989 38.855 159.334 38.5535 158.564L38.5098 158.451C38.2067 157.688 38.1568 156.848 38.3676 156.054C38.5784 155.26 39.0387 154.556 39.6806 154.044C40.301 153.522 41.0727 153.214 41.8818 153.164C42.6909 153.115 43.4944 153.327 44.1738 153.769C59.016 163.216 76.5762 167.465 94.0957 165.849C111.615 164.232 128.101 156.841 140.964 144.837C153.826 132.833 162.337 116.896 165.158 99.5296C167.979 82.1633 164.951 64.3519 156.55 48.8934C156.156 48.1847 156 47.3682 156.106 46.5643C156.211 45.7604 156.572 45.0116 157.135 44.4282C157.691 43.8231 158.427 43.4127 159.234 43.2575C160.041 43.1023 160.877 43.2104 161.618 43.5661L161.727 43.617C162.47 43.9651 163.084 44.5401 163.479 45.2593C170.67 58.5401 174.289 73.4607 173.982 88.5603C173.675 103.66 169.451 118.421 161.725 131.398C153.999 144.375 143.036 155.123 129.908 162.59C116.78 170.057 101.938 173.987 86.8356 173.995H86.7949Z" fill="#C78BFF"/>
</svg>
