<svg width="267" height="36" viewBox="0 0 267 36" fill="none" xmlns="http://www.w3.org/2000/svg">
<path d="M6.96236 29H9.6044V19.2415H21.2379V29H23.88V7.18182H21.2379V16.8977H9.6044V7.18182H6.96236V29ZM29.1694 29H42.5075V26.6562H31.8114V19.2415H41.6552V16.8977H31.8114V9.52557H42.337V7.18182H29.1694V29ZM47.994 29L50.1886 22.821H59.0096L61.2042 29H63.9741L55.9627 7.18182H53.2354L45.2241 29H47.994ZM51.0195 20.4773L54.5138 10.6335H54.6843L58.1786 20.4773H51.0195ZM67.3725 29H80.1566V26.6562H70.0146V7.18182H67.3725V29ZM80.1539 9.52557H87.0147V29H89.6568V9.52557H96.5176V7.18182H80.1539V9.52557ZM100.595 29H103.237V19.2415H114.871V29H117.513V7.18182H114.871V16.8977H103.237V7.18182H100.595V29ZM130.047 9.52557H136.907V29H139.549V9.52557H146.41V7.18182H130.047V9.52557ZM150.488 29H153.13V20.4773H157.903C158.094 20.4773 158.275 20.4773 158.456 20.4666L163.059 29H166.127L161.194 19.9872C163.975 19.0391 165.275 16.7699 165.275 13.8722C165.275 10.0156 162.974 7.18182 157.86 7.18182H150.488V29ZM153.13 18.0909V9.52557H157.775C161.312 9.52557 162.675 11.2514 162.675 13.8722C162.675 16.4929 161.312 18.0909 157.817 18.0909H153.13ZM170.572 29L172.767 22.821H181.588L183.782 29H186.552L178.541 7.18182H175.814L167.802 29H170.572ZM173.598 20.4773L177.092 10.6335H177.262L180.757 20.4773H173.598ZM206.482 14C205.672 9.52557 202.093 6.88352 197.704 6.88352C192.121 6.88352 188.073 11.1875 188.073 18.0909C188.073 24.9943 192.121 29.2983 197.704 29.2983C202.093 29.2983 205.672 26.6562 206.482 22.1818H203.84C203.201 25.2074 200.601 26.8267 197.704 26.8267C193.741 26.8267 190.63 23.7585 190.63 18.0909C190.63 12.4233 193.741 9.35511 197.704 9.35511C200.601 9.35511 203.201 10.9744 203.84 14H206.482ZM210.751 29H213.393V21.9261L216.121 18.858L223.706 29H226.902L217.74 17.0256L226.902 7.18182H223.45L213.649 18.0057H213.393V7.18182H210.751V29Z" fill="white"/>
<path d="M252 12.5455C248.986 12.5455 246.545 14.9864 246.545 18C246.545 21.0136 248.986 23.4545 252 23.4545C255.014 23.4545 257.455 21.0136 257.455 18C257.455 14.9864 255.014 12.5455 252 12.5455ZM264.191 16.6364C263.564 10.95 259.05 6.43636 253.364 5.80909V3H250.636V5.80909C244.95 6.43636 240.436 10.95 239.809 16.6364H237V19.3636H239.809C240.436 25.05 244.95 29.5636 250.636 30.1909V33H253.364V30.1909C259.05 29.5636 263.564 25.05 264.191 19.3636H267V16.6364H264.191V16.6364ZM252 27.5455C246.723 27.5455 242.455 23.2773 242.455 18C242.455 12.7227 246.723 8.45455 252 8.45455C257.277 8.45455 261.545 12.7227 261.545 18C261.545 23.2773 257.277 27.5455 252 27.5455Z" fill="white"/>
</svg>
