<svg width="192" height="198" viewBox="0 0 192 198" fill="none" xmlns="http://www.w3.org/2000/svg">
<path d="M95.9644 6.03164e-05C83.4665 -0.0056303 71.09 2.53156 59.5417 7.46669C47.9934 12.4018 37.4996 19.6382 28.6595 28.7626C19.8194 37.8869 12.8063 48.7205 8.02076 60.6446C3.23519 72.5686 0.770887 85.3496 0.768617 98.2574C0.766348 111.165 3.22618 123.947 8.00755 135.873C12.7889 147.799 19.7982 158.635 28.6351 167.763C37.4719 176.89 47.9632 184.131 59.5098 189.07C71.0564 194.01 83.432 196.551 95.9298 196.55H95.9644C96.5813 196.55 97.1853 196.55 97.8022 196.524C122.875 196.025 146.743 185.324 164.217 166.748C181.691 148.171 191.358 123.221 191.116 97.322C190.874 71.4234 180.742 46.6706 162.924 28.4459C145.106 10.2212 121.042 -0.00171687 95.9644 2.16273e-07V6.03164e-05ZM115.358 186.436C103.347 189.253 90.896 189.421 78.8183 186.928C66.7407 184.436 55.3082 179.339 45.2681 171.971C35.228 164.603 26.8062 155.131 20.5532 144.171C14.3001 133.212 10.3566 121.014 8.98016 108.373C7.60377 95.7324 8.82551 82.9339 12.5656 70.8142C16.3057 58.6944 22.48 47.5262 30.6849 38.0394C38.8898 28.5525 48.9406 20.9606 60.1806 15.7598C71.4205 10.559 83.5965 7.86631 95.913 7.85776H95.9645C117.493 7.85635 138.267 16.0483 154.317 30.8681C170.366 45.6878 180.565 66.096 182.965 88.1922C185.364 110.288 179.796 132.523 167.324 150.647C154.852 168.77 136.352 181.512 115.358 186.436V186.436Z" fill="#E6E6E6"/>
<path d="M95.9645 197.043C72.3643 197.042 49.5976 188.029 32.044 171.737C14.4904 155.445 3.3896 133.025 0.877048 108.789C-1.63551 84.5532 4.61761 60.2137 18.4336 40.4526C32.2496 20.6916 52.6525 6.90467 75.7176 1.74401C76.285 1.61859 76.8709 1.61075 77.4413 1.72093L77.6398 1.75988C78.5968 1.95154 79.4604 2.47831 80.085 3.25126C80.7095 4.02421 81.0567 4.996 81.0681 6.00267C81.0794 7.00935 80.7542 7.98926 80.1472 8.77702C79.5403 9.56478 78.6888 10.1122 77.7364 10.3268C56.7109 14.9822 38.097 27.5082 25.48 45.4921C12.8629 63.4759 7.13537 85.6455 9.40038 107.731C11.6654 129.816 21.7628 150.254 37.7477 165.109C53.7326 179.964 74.4743 188.184 95.9775 188.187C96.8185 188.179 97.636 188.175 98.4662 188.15C99.3921 188.11 100.302 188.409 101.036 188.992C101.77 189.576 102.282 190.408 102.482 191.343C102.701 192.246 102.604 193.199 102.208 194.035C101.811 194.871 101.141 195.535 100.316 195.91V195.91C99.7558 196.176 99.1931 196.436 98.628 196.691C98.1518 196.909 97.6384 197.026 97.1178 197.036C96.7343 197.043 96.3518 197.043 95.9645 197.043Z" fill="#C78BFF"/>
<path d="M142.907 94.097C140.372 93.9657 137.864 94.6947 135.768 96.1726C133.671 97.6505 132.101 99.7963 131.295 102.282H121.925L115.083 81.035C114.829 80.2388 114.339 79.5456 113.681 79.0542C113.024 78.5628 112.233 78.2982 111.421 78.2982H111.349C110.526 78.3113 109.729 78.5995 109.077 79.1199C108.426 79.6402 107.955 80.3645 107.736 81.1843L97.0159 119.823L84.417 41.6751C84.2709 40.7706 83.8278 39.9455 83.1623 39.3384C82.4968 38.7314 81.6492 38.3794 80.7621 38.3414C79.8749 38.3035 79.0021 38.582 78.2903 39.1301C77.5784 39.6783 77.0709 40.4627 76.8528 41.3517L64.0853 102.282H49.776C48.7538 102.282 47.7734 102.702 47.0506 103.448C46.3278 104.195 45.9217 105.207 45.9217 106.263C45.9217 107.319 46.3278 108.331 47.0506 109.078C47.7734 109.825 48.7538 110.244 49.776 110.244H67.1206C67.9792 110.245 68.8134 109.949 69.4902 109.404C70.167 108.858 70.6473 108.094 70.8545 107.233L79.864 61.9024L92.222 138.507C92.3634 139.4 92.7969 140.215 93.4501 140.817C94.1033 141.42 94.9368 141.772 95.8113 141.816H96.0281C96.8658 141.815 97.6804 141.533 98.3494 141.013C99.0184 140.492 99.5057 139.762 99.738 138.93L111.711 95.7389L115.493 107.507C115.75 108.301 116.242 108.991 116.899 109.482C117.555 109.973 118.344 110.239 119.154 110.244H131.464C132.2 112.257 133.449 114.027 135.079 115.368C136.708 116.709 138.658 117.57 140.723 117.86C142.787 118.15 144.889 117.859 146.807 117.018C148.724 116.176 150.386 114.816 151.617 113.079C152.847 111.343 153.601 109.295 153.798 107.153C153.994 105.011 153.627 102.854 152.735 100.909C151.843 98.9646 150.459 97.3051 148.729 96.1061C146.999 94.907 144.987 94.2129 142.907 94.097H142.907Z" fill="#E6E6E6"/>
</svg>
