<svg width="518" height="377" viewBox="0 0 518 377" fill="none" xmlns="http://www.w3.org/2000/svg">
<path d="M477.374 348.16C477.378 349.47 477.245 350.776 476.979 352.056C476.93 352.297 476.876 352.559 476.822 352.764C475.42 358.483 471.469 362.665 466.753 362.932C466.595 362.932 466.437 362.932 466.259 362.932C461.272 362.932 457.054 358.553 455.662 352.523C455.623 352.363 455.588 352.202 455.554 352.021C455.288 350.74 455.156 349.434 455.159 348.125C455.159 339.956 460.127 333.339 466.259 333.339C472.391 333.339 477.374 340.001 477.374 348.16Z" fill="#3F3D56"/>
<path opacity="0.1" d="M477.374 348.16C477.378 349.47 477.245 350.776 476.979 352.056C476.93 352.297 476.876 352.559 476.821 352.764C476.654 352.764 476.491 352.764 476.328 352.764C475.106 352.697 473.892 352.53 472.697 352.262C471.638 352.595 470.557 352.847 469.461 353.015C468.621 353.144 467.774 353.225 466.925 353.256H466.067C465.05 353.257 464.035 353.188 463.028 353.051C461.399 352.829 459.799 352.425 458.257 351.846C457.413 352.132 456.553 352.366 455.682 352.548C455.643 352.388 455.608 352.227 455.573 352.046C455.307 350.765 455.175 349.459 455.179 348.15C455.179 339.981 460.147 333.364 466.279 333.364C472.411 333.364 477.374 340.001 477.374 348.16Z" fill="black"/>
<path d="M501.054 320.621C501.058 317.028 500.23 313.484 498.637 310.278L485.583 314.41L497.043 307.552C495.122 304.725 492.601 302.374 489.667 300.671C486.733 298.969 483.461 297.959 480.092 297.716C479.555 296.889 478.967 296.097 478.331 295.346L459.584 301.286L474.962 292.088C472.02 289.791 468.568 288.268 464.91 287.652C461.253 287.036 457.502 287.347 453.991 288.557C450.479 289.767 447.315 291.839 444.777 294.59C442.24 297.341 440.407 300.685 439.442 304.328L455.5 323.146L438.08 310.318C433.663 313.502 430.518 318.195 429.217 323.542C427.917 328.889 428.548 334.534 430.996 339.447C433.444 344.36 437.546 348.213 442.553 350.305C447.56 352.397 453.139 352.587 458.272 350.841C462.915 352.574 467.988 352.715 472.717 351.243C476.014 351.985 479.433 351.965 482.721 351.184C486.01 350.403 489.084 348.88 491.717 346.729C494.35 344.577 496.476 341.852 497.936 338.753C499.397 335.654 500.155 332.262 500.156 328.825C500.156 328.323 500.156 327.821 500.107 327.319C500.746 325.146 501.065 322.889 501.054 320.621Z" fill="#6C63FF"/>
<path opacity="0.1" d="M500.664 324.884C493.771 323.551 486.701 323.46 479.777 324.613C471.938 325.933 463.926 328.835 456.259 326.711C451.76 325.466 447.873 322.584 443.477 320.988C439.237 319.478 434.668 319.198 430.281 320.179C428.607 324.25 428.121 328.725 428.881 333.069C429.64 337.413 431.612 341.443 434.561 344.677C437.511 347.911 441.313 350.212 445.514 351.305C449.714 352.398 454.135 352.237 458.248 350.841C462.891 352.574 467.963 352.715 472.692 351.243C475.99 351.985 479.408 351.965 482.697 351.184C485.985 350.403 489.059 348.88 491.692 346.729C494.326 344.577 496.451 341.852 497.912 338.753C499.372 335.654 500.131 332.262 500.132 328.825C500.132 328.323 500.132 327.821 500.082 327.319C500.32 326.519 500.515 325.706 500.664 324.884Z" fill="black"/>
<path d="M344.643 86.3434H341.816C341.192 86.3434 340.686 86.8582 340.686 87.4932V127.881C340.686 128.516 341.192 129.031 341.816 129.031H344.643C345.267 129.031 345.772 128.516 345.772 127.881V87.4932C345.772 86.8582 345.267 86.3434 344.643 86.3434Z" fill="#3F3D56"/>
<path d="M173.678 52.8996H172.302C171.893 52.8996 171.562 53.2368 171.562 53.6527V66.1998C171.562 66.6157 171.893 66.9529 172.302 66.9529H173.678C174.087 66.9529 174.418 66.6157 174.418 66.1998V53.6527C174.418 53.2368 174.087 52.8996 173.678 52.8996Z" fill="#3F3D56"/>
<path d="M173.841 78.6314H172.292C171.831 78.6314 171.458 79.0113 171.458 79.4799V102.244C171.458 102.713 171.831 103.093 172.292 103.093H173.841C174.301 103.093 174.675 102.713 174.675 102.244V79.4799C174.675 79.0113 174.301 78.6314 173.841 78.6314Z" fill="#3F3D56"/>
<path d="M173.777 111.648H172.302C171.863 111.648 171.507 112.01 171.507 112.457V135.513C171.507 135.959 171.863 136.321 172.302 136.321H173.777C174.215 136.321 174.571 135.959 174.571 135.513V112.457C174.571 112.01 174.215 111.648 173.777 111.648Z" fill="#3F3D56"/>
<path d="M325.822 6.46182H190.787C181.063 6.46182 173.18 14.4846 173.18 24.3812V340.689C173.18 350.586 181.063 358.609 190.787 358.609H325.822C335.546 358.609 343.429 350.586 343.429 340.689V24.3812C343.429 14.4846 335.546 6.46182 325.822 6.46182Z" fill="#3F3D56"/>
<path d="M264.402 16.9755H243.134C242.442 16.9755 241.881 17.5464 241.881 18.2508V20.6156C241.881 21.3199 242.442 21.8909 243.134 21.8909H264.402C265.094 21.8909 265.655 21.3199 265.655 20.6156V18.2508C265.655 17.5464 265.094 16.9755 264.402 16.9755Z" fill="#E6E8EC"/>
<path d="M271.989 22.2172C273.502 22.2172 274.727 20.9696 274.727 19.4307C274.727 17.8917 273.502 16.6441 271.989 16.6441C270.477 16.6441 269.251 17.8917 269.251 19.4307C269.251 20.9696 270.477 22.2172 271.989 22.2172Z" fill="#E6E8EC"/>
<path d="M332.916 29.392V335.663C332.915 339.312 331.49 342.812 328.954 345.391C326.418 347.971 322.979 349.421 319.394 349.421H197.215C193.629 349.421 190.191 347.971 187.655 345.391C185.119 342.812 183.694 339.312 183.693 335.663V29.392C183.693 27.5847 184.042 25.7952 184.722 24.1255C185.402 22.4558 186.398 20.9387 187.653 19.6607C188.909 18.3828 190.4 17.3691 192.04 16.6775C193.681 15.9859 195.439 15.6299 197.215 15.6299H215.498V18.0198C215.503 21.0222 216.678 23.8999 218.766 26.0216C220.853 28.1432 223.682 29.3355 226.632 29.3368H288.792C290.255 29.3368 291.702 29.0437 293.053 28.4742C294.404 27.9047 295.632 27.07 296.666 26.0177C297.7 24.9654 298.52 23.7162 299.079 22.3413C299.639 20.9665 299.927 19.4929 299.927 18.0047V15.6299H319.418C323.001 15.6365 326.434 17.0894 328.964 19.6696C331.495 22.2498 332.916 25.7464 332.916 29.392Z" fill="white"/>
<path opacity="0.2" d="M333.987 155.862V260.009H332.916V260.115H183.693V132.877C184.65 131.765 185.62 130.612 186.603 129.417C207.56 103.946 236.045 97.2437 258.092 96.5407C273.198 96.0387 288.235 99.2169 302.591 105.528C310.173 108.862 321.056 112.517 332.916 112.879V152.252C333.641 154.356 333.987 155.862 333.987 155.862Z" fill="#6C63FF"/>
<path opacity="0.2" d="M333.987 155.862V260.009H183.693V191.786C189.045 190.415 196.519 185.144 206.11 170.578C217.58 153.151 233.164 148.567 245.226 148.085C253.489 147.753 261.718 149.912 269.572 154.235C278.408 159.09 295.438 164.945 308.378 147.949C322.684 129.156 330.292 144.655 332.916 152.252C333.641 154.356 333.987 155.862 333.987 155.862Z" fill="#6C63FF"/>
<path d="M312.28 240.935H204.733C201.464 240.935 198.813 243.633 198.813 246.96V273.069C198.813 276.396 201.464 279.094 204.733 279.094H312.28C315.55 279.094 318.2 276.396 318.2 273.069V246.96C318.2 243.633 315.55 240.935 312.28 240.935Z" fill="#736E9E"/>
<path d="M66.1363 343.285L75.5787 337.617C74.3017 335.397 72.6694 333.41 70.749 331.737L52.9347 337.396L66.896 329.041C63.44 327.114 59.5506 326.136 55.6105 326.204C51.6705 326.272 47.8156 327.382 44.4254 329.427C41.0353 331.471 38.2266 334.379 36.2758 337.863C34.3251 341.348 33.2995 345.29 33.3 349.3C33.3 362.058 43.4578 362.5 55.9934 362.5C68.529 362.5 78.6867 362.058 78.6867 349.3C78.6911 346.072 78.0271 342.88 76.738 339.931L66.1363 343.285Z" fill="#6C63FF"/>
<path opacity="0.1" d="M68.5388 355.692C67.5338 354.666 66.4108 353.767 65.194 353.015C63.4772 351.856 61.7061 350.676 59.6834 350.279C57.9074 349.933 56.0772 350.224 54.2568 350.123C51.1159 349.927 48.1596 348.547 45.9638 346.252C44.6762 344.897 43.66 343.24 42.1109 342.191C40.4385 341.076 38.3172 340.835 36.334 341.111C35.7592 341.199 35.1895 341.318 34.627 341.468C33.7367 343.981 33.2826 346.633 33.2852 349.305C33.2852 362.063 43.4429 362.505 55.9785 362.505C62.0613 362.505 67.5817 362.399 71.6566 360.833L70.9758 359.538C70.3265 358.156 69.5076 356.864 68.5388 355.692Z" fill="black"/>
<path d="M112.598 292.364C111.877 293.008 111.322 293.821 110.98 294.734C110.137 297.415 112.495 300.046 112.722 302.852C112.899 305.081 111.735 307.16 111.074 309.299C110.328 311.956 110.376 314.779 111.213 317.408C112.049 320.037 113.636 322.353 115.771 324.06C116.225 324.453 116.762 324.734 117.339 324.884C117.816 324.942 118.299 324.901 118.76 324.763C119.221 324.625 119.649 324.392 120.018 324.08C121.164 323.232 122.037 322.058 122.529 320.706C122.938 319.378 123.159 317.996 123.185 316.604L123.536 311.232C123.901 305.624 124.231 299.84 122.889 294.332C122.45 292.524 121.636 288.372 119.584 288.121C117.532 287.87 113.96 291.008 112.598 292.364Z" fill="#3F3D56"/>
<path d="M147.013 269.288C144.549 278.095 142.763 287.085 141.671 296.175C141.513 297.455 141.35 298.8 140.59 299.835C139.076 301.908 136.042 301.778 133.526 301.441C132.922 301.409 132.333 301.237 131.804 300.939C130.857 300.287 130.649 298.981 130.536 297.821C128.813 280.724 127.662 263.581 127.083 246.393C127.058 245.735 148.143 245.675 149.949 247.397C151.754 249.119 150.353 255.561 149.949 257.755C149.288 261.661 148.094 265.467 147.013 269.288Z" fill="#FBBEBE"/>
<path opacity="0.05" d="M147.013 269.288C144.549 278.095 142.763 287.085 141.671 296.175C141.513 297.455 141.35 298.8 140.59 299.835C139.076 301.908 136.042 301.778 133.526 301.441C132.922 301.409 132.333 301.237 131.804 300.939C130.857 300.287 130.649 298.981 130.536 297.821C128.813 280.724 127.662 263.581 127.083 246.393C127.058 245.735 148.143 245.675 149.949 247.397C151.754 249.119 150.353 255.561 149.949 257.755C149.288 261.661 148.094 265.467 147.013 269.288Z" fill="black"/>
<path d="M103.107 243.948L111.646 263.062C114.488 269.418 117.349 275.845 118.706 282.688C119.25 285.547 119.598 288.441 119.747 291.349C119.953 293.842 119.877 296.351 119.52 298.825C119.209 300.663 118.637 302.451 118.385 304.298C117.399 311.664 121.498 318.593 124.305 325.446C126.731 331.332 128.274 337.555 128.883 343.908C129.14 346.614 129.283 349.486 130.802 351.72C133.58 350.872 136.293 350.138 139.189 350.47C139.707 346.147 137.023 342.165 136.037 337.918C134.226 330.135 138.227 321.956 136.865 314.079C136.125 309.811 133.831 305.794 134.019 301.466C134.369 293.574 135.825 285.601 134.345 277.868C132.677 269.127 127.882 261.179 126.821 252.343C126.007 245.554 127.315 238.048 123.6 232.345C115.484 231.857 107.093 236.733 103.107 243.948Z" fill="#FBBEBE"/>
<path d="M131.172 363.986C130.319 364.016 129.322 363.986 128.795 363.298C128.537 362.898 128.389 362.435 128.365 361.958C127.961 358.931 127.763 355.879 127.773 352.825C127.773 351.71 127.823 350.525 128.434 349.606C128.883 349.046 129.395 348.54 129.959 348.1C131.266 346.87 132.218 345.088 133.905 344.52C134.645 344.301 135.428 344.291 136.173 344.49C136.917 344.689 137.595 345.09 138.133 345.65C139.198 346.805 139.857 348.286 140.008 349.862C140.255 351.73 140.047 353.764 141.019 355.385C141.404 356.013 141.942 356.525 142.376 357.117C143.856 359.126 145.183 363.057 142.129 363.87C138.893 364.729 134.532 363.876 131.172 363.986Z" fill="#3F3D56"/>
<path d="M138.577 130.828C140.304 127.434 139.273 123.066 136.806 120.184C134.34 117.302 130.733 115.695 127.053 114.827C122.12 113.652 116.831 113.662 112.11 115.51C108.346 116.981 105.105 119.526 101.632 121.605C95.494 125.282 88.6245 127.512 81.5283 128.132C73.635 128.81 64.8191 127.755 58.7166 132.872C47.5376 142.24 55.3224 163.353 44.9032 173.576C42.0912 176.332 38.337 177.823 35.1155 180.068C31.894 182.312 29.013 185.902 29.531 189.838C29.7776 191.731 30.7939 193.438 31.968 194.929C37.0099 201.341 45.4755 204.7 53.4823 203.701C61.4891 202.701 68.82 197.47 72.7223 190.27C73.709 188.467 74.5082 186.494 76.0622 185.184C79.1751 182.568 83.7434 183.627 87.7788 183.502C96.7526 183.221 104.902 175.393 105.687 166.285C106.022 162.394 105.371 157.865 108.119 155.134C110.334 152.925 113.797 152.945 116.826 152.267C122.391 151.027 126.441 146.93 128.982 141.929C130.146 139.63 130.028 137.059 131.755 135.151C133.595 133.052 136.935 134.051 138.577 130.828Z" fill="#3F3D56"/>
<g opacity="0.1">
<path opacity="0.1" d="M74.1727 129.724C77.4457 129.439 80.681 128.812 83.8272 127.851C82.9392 127.976 82.0512 128.082 81.1583 128.157C74.9719 128.684 68.2033 128.157 62.6287 130.371C66.4273 129.975 70.4085 130.045 74.1727 129.724Z" fill="black"/>
<path opacity="0.1" d="M68.6671 186.775C67.1131 188.081 66.2942 190.059 65.3272 191.861C62.3375 197.346 57.5498 201.588 51.8 203.846C52.2391 203.816 52.6782 203.776 53.1172 203.721C61.124 202.716 68.455 197.495 72.3572 190.295C73.3439 188.492 74.1382 186.514 75.6971 185.209L75.9635 184.998C73.2551 184.933 70.6602 185.098 68.6671 186.775Z" fill="black"/>
<path opacity="0.1" d="M136.436 120.214C133.97 117.332 130.339 115.73 126.683 114.857C121.75 113.682 116.461 113.697 111.735 115.545L111.419 115.675C114.2 115.514 116.989 115.766 119.698 116.423C123.353 117.297 126.989 118.899 129.451 121.786C131.912 124.673 132.948 129.036 131.222 132.43C129.579 135.653 126.239 134.649 124.36 136.733C122.633 138.635 122.751 141.211 121.587 143.511C119.402 147.814 116.091 151.439 111.671 153.161C113.215 152.789 114.873 152.624 116.412 152.282C121.977 151.037 126.027 146.945 128.568 141.944C129.737 139.645 129.619 137.069 131.34 135.166C133.225 133.082 136.565 134.082 138.203 130.863C139.929 127.479 138.898 123.111 136.436 120.214Z" fill="black"/>
<path opacity="0.1" d="M109.431 153.854C106.402 154.526 102.939 154.511 100.724 156.716C97.976 159.452 98.6272 163.981 98.2917 167.872C97.7047 174.675 93.0032 180.765 86.9204 183.532H87.3693C96.3431 183.251 104.488 175.418 105.272 166.315C105.613 162.419 104.962 157.89 107.709 155.159C108.339 154.548 109.08 154.067 109.89 153.743L109.431 153.854Z" fill="black"/>
</g>
<path d="M138.725 176.523C138.316 177.261 137.472 177.602 136.688 177.898C128.568 180.941 120.023 184.039 111.459 182.759C111.138 181.388 110.822 180.012 110.507 178.642C110.05 176.653 109.589 174.665 109.125 172.677C108.908 171.728 108.686 170.769 108.509 169.805C108.203 168.283 108.105 166.725 108.218 165.176C108.27 164.614 108.369 164.058 108.514 163.514C108.767 162.523 109.191 161.587 109.767 160.747C109.865 160.612 109.969 160.476 110.077 160.346C110.565 159.747 111.157 159.245 111.824 158.864C113.279 158.051 115.277 157.705 115.864 156.128C116.091 155.304 116.069 154.429 115.8 153.618C115.307 151.609 114.414 149.722 113.861 147.733C113.161 145.223 114.217 145.378 116.599 144.771C120.891 143.671 125.381 142.883 129.786 143.767C129.579 145.981 129.377 148.25 129.924 150.409C130.472 152.568 131.937 154.617 134.044 155.214C134.354 155.305 134.685 155.36 135.03 155.435C135.488 155.51 135.922 155.692 136.298 155.967C136.558 156.186 136.764 156.462 136.9 156.776C137.114 157.306 137.256 157.863 137.319 158.433C138.092 163.701 138.65 168.995 138.992 174.314V174.514C139.093 175.196 139.001 175.893 138.725 176.523Z" fill="#FBBEBE"/>
<path d="M96.9203 167.872C95.0752 170.729 94.4536 174.203 93.8912 177.577L90.3096 198.715C89.8163 201.607 89.3772 204.785 90.8325 207.321C91.3259 208.179 92.0165 208.922 92.3767 209.831C92.6487 210.745 92.8273 211.686 92.9095 212.638C93.7481 217.483 98.4299 220.751 103.126 221.926C104.823 222.353 106.807 222.519 108.144 221.369C109.624 220.119 109.624 217.739 108.75 216.022C107.877 214.305 106.284 213.09 104.74 211.94L99.6237 208.104L102.584 185.008C102.801 183.331 103.57 181.157 105.238 181.343C106.757 181.508 107.927 183.763 109.278 183.035C109.702 182.743 110 182.298 110.112 181.79C110.704 179.897 110.541 177.858 110.373 175.875L109.762 168.715C109.559 166.391 110.147 164.648 110.423 162.464C110.743 159.919 109.076 160.692 107.019 161.239C103.067 162.304 99.2044 164.327 96.9203 167.872Z" fill="#FBBEBE"/>
<path d="M160.536 202.586C160.16 203.23 159.603 203.744 158.937 204.062C154.943 206.354 150.246 207.026 145.785 205.945C144.757 205.637 143.713 205.389 142.657 205.202C140.97 204.991 139.253 205.332 137.551 205.202C134.098 204.936 131.064 202.742 128.671 200.181C127.231 198.675 125.923 196.21 127.265 194.593C127.64 194.203 128.106 193.915 128.619 193.757C129.132 193.599 129.676 193.576 130.201 193.689C131.245 193.926 132.253 194.308 133.195 194.824C136.497 196.382 140.029 197.372 143.649 197.756C146.115 198.017 149.253 197.59 150.107 195.205C150.521 194.046 150.23 192.76 149.939 191.56C149.143 188.273 148.347 184.985 147.551 181.694C147.496 181.407 147.396 181.131 147.255 180.876C147.215 180.807 147.167 180.743 147.112 180.685C146.797 180.418 146.417 180.245 146.012 180.183C144.172 179.721 142.332 178.973 141.014 177.592C140.151 176.612 139.463 175.485 138.982 174.263C138.844 173.957 138.715 173.646 138.582 173.335C137.571 170.935 136.505 168.474 135.681 165.954C135.106 164.25 134.682 162.498 134.414 160.717C134.197 159.176 134.078 158.468 134.907 157.785C135.129 157.614 135.365 157.463 135.612 157.333C135.992 157.127 136.421 156.921 136.875 156.726L137.314 156.54C138.664 155.991 140.05 155.541 141.463 155.194C144.887 154.386 148.543 156.073 150.891 158.739C153.239 161.405 154.458 164.895 155.237 168.384C156.017 171.873 156.416 175.448 157.393 178.883C157.773 180.228 158.247 181.554 158.572 182.899C158.922 184.5 159.17 186.122 159.317 187.754C159.781 191.915 160.243 196.076 160.703 200.236C160.874 201.019 160.815 201.836 160.536 202.586Z" fill="#FBBEBE"/>
<path d="M109.88 200.778C110.867 207.185 108.03 213.486 105.287 219.356C106.841 220.51 108.741 221.083 110.595 221.58C123.011 224.901 135.917 225.89 148.681 224.497C148.987 222.328 149.273 220.028 148.4 218.03C147.857 216.79 146.92 215.781 146.323 214.566C145.336 212.557 145.435 210.223 145.543 207.993L146.426 189C140.304 186.128 133.205 188.819 126.471 189.205C122.983 189.406 119.451 188.974 116.012 189.602C114.226 189.928 108.612 190.827 107.769 192.7C106.925 194.573 109.579 198.74 109.88 200.778Z" fill="#FBBEBE"/>
<path opacity="0.05" d="M109.88 200.778C110.867 207.185 108.03 213.486 105.287 219.356C106.841 220.51 108.741 221.083 110.595 221.58C123.011 224.901 135.917 225.89 148.681 224.497C148.987 222.328 149.273 220.028 148.4 218.03C147.857 216.79 146.92 215.781 146.323 214.566C145.336 212.557 145.435 210.223 145.543 207.993L146.426 189C140.304 186.128 133.205 188.819 126.471 189.205C122.983 189.406 119.451 188.974 116.012 189.602C114.226 189.928 108.612 190.827 107.769 192.7C106.925 194.573 109.579 198.74 109.88 200.778Z" fill="black"/>
<path d="M126.101 219.165C119.466 217.759 112.944 215.434 106.17 215.274C105.83 215.238 105.487 215.305 105.184 215.464C104.853 215.743 104.632 216.133 104.562 216.564C103.862 219.024 103.235 221.503 102.682 224C100.847 232.299 99.9445 241.467 103.98 248.918C103.94 246.498 105.435 244.234 107.433 242.893C109.431 241.553 111.824 241.01 114.192 240.79C116.56 240.569 119.091 240.659 121.296 241.648C122.837 242.361 124.167 243.474 125.151 244.875C126.136 246.276 126.741 247.917 126.905 249.631L150.215 250.399C150.352 250.44 150.496 250.445 150.635 250.415C150.774 250.384 150.903 250.319 151.011 250.225C151.119 250.13 151.201 250.01 151.252 249.875C151.303 249.74 151.319 249.594 151.3 249.451C152.16 241.84 152.128 234.153 151.207 226.55C150.95 224.427 150.916 221.479 148.567 220.681C145.765 219.727 141.335 220.842 138.341 220.711C134.226 220.535 130.133 220.018 126.101 219.165Z" fill="#3F3D56"/>
<path d="M147.26 181.97L147.186 192.514L123.605 193.312C119.278 193.463 114.917 193.614 110.699 194.593C109.485 194.874 108.287 195.225 107.093 195.572C105.85 190.938 104.626 186.082 104.952 181.358C105.042 180.083 105.26 178.821 105.603 177.592C106.353 174.941 107.759 172.441 108.509 169.82C108.811 168.8 108.977 167.742 109.002 166.677C108.946 165.613 108.781 164.558 108.509 163.529C108.292 162.685 108.189 161.815 108.203 160.943L110.072 160.356C110.127 160.582 110.171 160.803 110.211 161.033C110.29 161.51 110.354 161.997 110.398 162.485C110.504 163.691 110.537 164.904 110.497 166.115C110.433 168.535 110.112 171.231 111.597 173.144C113.526 175.599 117.236 175.217 120.265 174.605L128.198 172.993C130.704 172.491 133.501 171.778 134.808 169.544C135.366 168.459 135.66 167.254 135.667 166.029V165.788C135.785 163.121 135.524 160.451 134.892 157.86C134.7 157.047 134.463 156.244 134.196 155.455H134.991C135.448 155.53 135.882 155.712 136.259 155.988C136.518 156.206 136.724 156.482 136.86 156.796L137.3 156.61C139.05 163.892 141.935 170.842 145.844 177.196C146.347 177.923 146.745 178.719 147.028 179.56C147.145 180.017 147.212 180.485 147.225 180.956C147.265 181.252 147.26 181.609 147.26 181.97Z" fill="#FF6F61"/>
<path d="M122.347 150.058C130.248 150.058 136.653 143.539 136.653 135.497C136.653 127.456 130.248 120.937 122.347 120.937C114.445 120.937 108.04 127.456 108.04 135.497C108.04 143.539 114.445 150.058 122.347 150.058Z" fill="#FBBEBE"/>
<path d="M96.9203 167.872C95.0752 170.729 94.4536 174.203 93.8912 177.577L90.3096 198.715C89.8163 201.607 89.3772 204.785 90.8325 207.321C91.3259 208.179 92.0165 208.922 92.3767 209.831C92.6487 210.745 92.8273 211.686 92.9095 212.638C93.7481 217.483 98.4299 220.751 103.126 221.926C104.823 222.353 106.807 222.519 108.144 221.369C109.624 220.119 109.624 217.739 108.75 216.022C107.877 214.305 106.284 213.09 104.74 211.94L99.6237 208.104L102.584 185.008C102.781 183.346 99.2044 164.327 96.9203 167.872Z" fill="#FBBEBE"/>
<path d="M155.242 168.414C156.022 171.904 156.421 175.478 157.398 178.913C157.778 180.263 158.251 181.584 158.577 182.929C158.927 184.528 159.175 186.148 159.322 187.78L160.708 200.261C160.868 201.032 160.808 201.833 160.536 202.571C160.158 203.213 159.602 203.727 158.937 204.047C154.941 206.333 150.246 207.005 145.785 205.93C144.758 205.618 143.714 205.37 142.657 205.187C140.97 204.971 139.253 205.317 137.551 205.187C134.098 204.921 131.064 202.732 128.671 200.191C127.231 198.685 125.923 196.215 127.265 194.598C127.64 194.208 128.106 193.92 128.619 193.762C129.132 193.604 129.676 193.581 130.201 193.694C131.245 193.933 132.253 194.316 133.195 194.834C136.498 196.388 140.03 197.377 143.649 197.761C146.115 198.027 149.253 197.6 150.107 195.21C150.521 194.051 150.23 192.765 149.939 191.565L147.551 181.699C147.452 181.358 154.463 164.93 155.242 168.414Z" fill="#FBBEBE"/>
<path d="M113.491 139.981C112.855 137.656 111.962 134.749 113.753 133.173C114.396 132.667 115.172 132.365 115.983 132.304C120.003 131.802 124.162 134.212 128.01 132.927C129.238 132.519 130.323 131.758 131.134 130.736C131.946 129.714 132.45 128.475 132.585 127.168C132.72 125.861 132.481 124.542 131.896 123.37C131.311 122.199 130.405 121.225 129.288 120.565C127.606 119.561 125.598 119.366 123.659 119.19C118.553 118.713 113.23 118.271 108.454 120.194C103.679 122.117 99.6533 127.067 100.64 132.194C101.099 134.639 102.584 136.743 104.093 138.691C105.253 140.172 109.905 147.226 111.775 147.126C114.409 146.975 113.906 141.492 113.491 139.981Z" fill="#3F3D56"/>
<path opacity="0.1" d="M129.288 120.565C129.003 120.398 128.706 120.252 128.4 120.129C129.266 120.929 129.911 121.946 130.269 123.079C130.628 124.212 130.688 125.422 130.443 126.586C130.198 127.75 129.658 128.828 128.875 129.713C128.092 130.597 127.095 131.257 125.983 131.626C122.135 132.912 117.976 130.502 113.955 131.004C113.144 131.065 112.369 131.367 111.725 131.872C109.934 133.449 110.827 136.356 111.464 138.681C111.878 140.187 112.381 145.675 109.757 145.825H109.712C110.526 146.634 111.261 147.161 111.784 147.131C114.409 146.98 113.906 141.497 113.491 139.986C112.855 137.661 111.962 134.754 113.753 133.178C114.396 132.672 115.172 132.37 115.983 132.309C120.003 131.807 124.162 134.217 128.01 132.932C129.238 132.524 130.323 131.763 131.134 130.741C131.946 129.719 132.45 128.48 132.585 127.173C132.72 125.866 132.481 124.547 131.896 123.375C131.311 122.204 130.405 121.23 129.288 120.57V120.565Z" fill="black"/>
<path d="M339.413 301.687H178.587V352.398H339.413V301.687Z" fill="#3F3D56"/>
<path d="M252.093 318.075V336L265.907 327.038L252.093 318.075Z" fill="white"/>
<path d="M128.76 17.1362L121.104 22.0767L125.751 13.476C124.434 12.406 122.803 11.8141 121.118 11.794H120.995C120.463 11.8019 119.931 11.7616 119.406 11.6735L116.811 13.3454L117.926 11.2869C116.085 10.6351 114.496 9.40425 113.388 7.77231L108.741 10.7848L111.676 5.35728C108.958 2.03851 105.297 0.00506592 101.271 0.00506592C96.4418 0.00506592 92.1399 2.9272 89.3624 7.4811C88.5411 8.84847 87.3772 9.96897 85.9902 10.7277C84.6032 11.4865 83.0428 11.8562 81.4691 11.799H81.2076C75.8747 11.799 71.5531 17.9496 71.5531 25.5411C71.5531 33.1326 75.8747 39.2831 81.2076 39.2831C82.3808 39.2775 83.5352 38.983 84.5722 38.4246C86.3864 37.5259 88.371 37.0398 90.3883 36.9999C92.4055 36.96 94.4072 37.3673 96.2543 38.1936C97.8172 38.9052 99.51 39.273 101.222 39.273C102.934 39.273 104.627 38.9052 106.19 38.1936C108.024 37.3844 110.008 36.9861 112.006 37.026C114.005 37.0658 115.972 37.5428 117.774 38.4246C118.8 38.9712 119.94 39.2588 121.099 39.263C126.431 39.263 130.753 33.1075 130.753 25.521C130.79 22.6002 130.104 19.717 128.76 17.1362Z" fill="#F2F2F2"/>
<path opacity="0.03" d="M114.325 37.2446C111.544 36.7079 108.669 37.026 106.067 38.1584C104.503 38.8684 102.811 39.2354 101.099 39.2354C99.387 39.2354 97.6943 38.8684 96.131 38.1584C94.2832 37.3339 92.2815 36.928 90.2644 36.9687C88.2473 37.0094 86.263 37.4959 84.4488 38.3944C83.4113 38.9506 82.257 39.2435 81.0843 39.2479C76.3483 39.2479 72.4066 34.3928 71.5876 27.9862C72.5318 27.2818 73.3355 26.4009 73.9556 25.3904C76.7331 20.8315 81.035 17.9093 85.8647 17.9093C90.6944 17.9093 94.942 20.7963 97.7047 25.305C98.5361 26.6611 99.697 27.776 101.075 28.5421C102.454 29.3081 104.003 29.6994 105.573 29.6782H105.697C109.471 29.6782 112.737 32.756 114.325 37.2446Z" fill="black"/>
<path d="M390.72 129.121L386.901 131.586L389.22 127.293C388.563 126.761 387.751 126.466 386.911 126.455H386.847C386.583 126.459 386.319 126.441 386.058 126.4L384.741 127.243L385.298 126.214C384.381 125.89 383.588 125.278 383.034 124.467L380.715 125.973L382.195 123.267C381.579 122.457 380.794 121.798 379.896 121.336C378.998 120.874 378.011 120.621 377.005 120.596C374.598 120.596 372.452 122.052 371.085 124.326C370.674 125.009 370.092 125.568 369.398 125.947C368.705 126.325 367.925 126.509 367.139 126.48H367.01C364.351 126.48 362.195 129.553 362.195 133.333C362.195 137.114 364.351 140.192 367.01 140.192C367.595 140.189 368.17 140.043 368.688 139.765C369.592 139.317 370.582 139.074 371.588 139.053C372.594 139.032 373.592 139.234 374.514 139.645C375.289 140.002 376.13 140.188 376.981 140.192C377.83 140.189 378.67 140.008 379.447 139.66C380.362 139.256 381.351 139.057 382.347 139.076C383.344 139.095 384.325 139.332 385.224 139.77C385.735 140.045 386.304 140.189 386.882 140.192C389.541 140.192 391.697 137.119 391.697 133.333C391.726 131.868 391.39 130.419 390.72 129.121Z" fill="#F2F2F2"/>
<path opacity="0.03" d="M383.503 139.153C382.114 138.881 380.677 139.041 379.378 139.61C378.602 139.962 377.762 140.144 376.912 140.144C376.062 140.144 375.221 139.962 374.445 139.61C373.523 139.2 372.525 138.997 371.519 139.017C370.514 139.037 369.524 139.279 368.619 139.725C368.102 140.005 367.527 140.153 366.941 140.157C364.578 140.157 362.615 137.732 362.205 134.538C362.676 134.188 363.077 133.748 363.384 133.243C364.771 130.969 366.917 129.513 369.304 129.513C371.692 129.513 373.833 130.954 375.224 133.198C375.639 133.88 376.221 134.441 376.913 134.826C377.605 135.211 378.383 135.406 379.171 135.392H379.23C381.08 135.377 382.713 136.913 383.503 139.153Z" fill="black"/>
<path d="M399.171 65.1002L405.303 69.0617L401.573 62.1681C402.629 61.3129 403.934 60.8395 405.283 60.8225H405.382C405.808 60.829 406.234 60.797 406.655 60.7271L408.737 62.0677L407.844 60.4208C409.316 59.8953 410.588 58.9116 411.48 57.6091L415.204 60.0091L412.851 55.6611C415.027 53 417.962 51.3733 421.188 51.3733C425.061 51.3733 428.504 53.713 430.729 57.3631C431.387 58.4554 432.318 59.3509 433.426 59.9585C434.534 60.5661 435.781 60.8642 437.039 60.8225H437.246C441.519 60.8225 444.982 65.753 444.982 71.8332C444.982 77.9134 441.528 82.8439 437.246 82.8439C436.307 82.8389 435.383 82.6029 434.553 82.156C433.097 81.434 431.505 81.0433 429.886 81.0112C428.267 80.9792 426.661 81.3064 425.179 81.9703C423.928 82.5395 422.572 82.8338 421.201 82.8338C419.83 82.8338 418.474 82.5395 417.222 81.9703C415.753 81.321 414.164 81.001 412.563 81.0322C410.962 81.0634 409.386 81.445 407.942 82.151C407.118 82.5879 406.203 82.8185 405.273 82.8238C401.001 82.8238 397.538 77.8934 397.538 71.8131C397.522 69.4717 398.084 67.1637 399.171 65.1002Z" fill="#F2F2F2"/>
<path opacity="0.03" d="M410.729 81.2121C412.962 80.7793 415.271 81.0346 417.36 81.9452C418.612 82.5144 419.967 82.8087 421.339 82.8087C422.71 82.8087 424.065 82.5144 425.317 81.9452C426.8 81.2834 428.406 80.9577 430.025 80.9907C431.643 81.0236 433.235 81.4144 434.691 82.136C435.521 82.5813 436.445 82.8156 437.384 82.8188C441.178 82.8188 444.335 78.9276 444.996 73.7813C444.235 73.2199 443.59 72.5119 443.097 71.6976C440.872 68.0525 437.424 65.7078 433.556 65.7078C429.688 65.7078 426.279 68.0224 424.054 71.6324C423.39 72.7209 422.46 73.6164 421.355 74.2321C420.251 74.8478 419.009 75.1629 417.75 75.1469H417.651C414.622 75.152 412.002 77.6172 410.729 81.2121Z" fill="black"/>
<path d="M284.384 110.151L284.138 110.15C274.328 110.131 265.639 114.767 260.628 121.624C255.658 114.747 246.996 110.076 237.186 110.056L236.939 110.056C229.577 110.104 222.532 112.755 217.336 117.433C212.14 122.11 209.211 128.437 209.188 135.038C209.164 143.234 213.134 154.872 220.913 164.458C235.735 182.723 260.4 198.726 260.4 198.726C260.4 198.726 285.159 182.825 300.086 164.617C307.925 155.063 311.96 143.441 311.985 135.244C312 128.644 309.11 122.306 303.942 117.608C298.774 112.909 291.746 110.229 284.384 110.151ZM280.692 165.981C279.575 165.975 278.486 165.666 277.568 165.095C276.65 164.524 275.947 163.718 275.55 162.782L269.685 162.77C269.299 162.767 268.923 162.656 268.611 162.452C268.299 162.249 268.065 161.963 267.943 161.635L266.155 156.765L260.402 174.611C260.29 174.955 260.057 175.257 259.737 175.471C259.418 175.686 259.029 175.802 258.63 175.801L258.515 175.801C258.098 175.782 257.702 175.636 257.391 175.386C257.081 175.137 256.876 174.799 256.809 174.43L251.028 142.74L246.679 161.477C246.58 161.833 246.35 162.149 246.027 162.374C245.704 162.599 245.306 162.721 244.897 162.72L236.636 162.703C236.388 162.712 236.141 162.676 235.909 162.597C235.678 162.518 235.466 162.398 235.288 162.244C235.109 162.09 234.967 161.905 234.871 161.7C234.774 161.496 234.725 161.276 234.725 161.053C234.726 160.831 234.777 160.611 234.875 160.407C234.972 160.203 235.115 160.019 235.295 159.865C235.474 159.712 235.686 159.593 235.918 159.515C236.151 159.436 236.398 159.401 236.646 159.411L243.46 159.425L249.617 134.235C249.718 133.862 249.96 133.533 250.302 133.302C250.644 133.072 251.064 132.956 251.491 132.973C251.918 132.989 252.325 133.139 252.643 133.395C252.961 133.651 253.169 133.998 253.233 134.377L259.137 166.704L264.293 150.737C264.4 150.4 264.626 150.104 264.937 149.892C265.247 149.681 265.626 149.564 266.016 149.561L266.052 149.561C266.438 149.562 266.814 149.672 267.127 149.876C267.439 150.08 267.671 150.367 267.791 150.697L271.023 159.489L275.487 159.498C275.807 158.634 276.387 157.866 277.163 157.279C277.939 156.692 278.881 156.308 279.884 156.17C280.888 156.032 281.914 156.146 282.85 156.498C283.786 156.85 284.596 157.428 285.189 158.166C285.782 158.905 286.135 159.776 286.211 160.684C286.286 161.591 286.081 162.5 285.617 163.31C285.152 164.119 284.448 164.798 283.581 165.272C282.713 165.745 281.717 165.995 280.702 165.993L280.692 165.981Z" fill="#6000B9"/>
</svg>
