<svg width="210" height="211" viewBox="0 0 210 211" fill="none" xmlns="http://www.w3.org/2000/svg">
<path d="M105 0.715332C47.0988 0.715332 6.51076e-05 47.7303 6.51076e-05 105.528C-0.0164836 120.323 3.12186 134.952 9.20649 148.443C25.6621 184.901 62.4036 210.342 105 210.342C132.843 210.326 159.541 199.279 179.229 179.626C198.917 159.973 209.985 133.322 210 105.528C210 47.7304 162.893 0.715332 105 0.715332ZM191.873 147.663C183.944 163.93 171.595 177.645 156.235 187.244C140.875 196.844 123.122 201.942 105 201.957C64.0669 201.957 28.9969 176.407 14.9605 140.444C10.6103 129.316 8.38518 117.474 8.40005 105.528C8.40005 52.3588 51.7356 9.10039 105 9.10039C158.264 9.10039 201.6 52.3588 201.6 105.528C201.618 120.13 198.291 134.542 191.873 147.663Z" fill="#E6E6E6"/>
<path d="M105.306 210.342C85.4033 210.326 65.9111 204.735 49.08 194.215C32.2489 183.696 18.7654 168.676 10.1863 150.89C9.8439 150.181 9.69522 149.395 9.75514 148.612C9.81506 147.828 10.0815 147.073 10.5278 146.423L10.5842 146.341C11.0299 145.702 11.6376 145.19 12.3463 144.857C13.055 144.523 13.8398 144.38 14.6219 144.442C15.404 144.504 16.1558 144.769 16.802 145.21C17.4482 145.65 17.966 146.252 18.3034 146.953C34.2444 180.028 68.3949 201.4 105.306 201.4C122.174 201.357 138.737 196.948 153.353 188.609C167.969 180.27 180.13 168.291 188.628 153.861C189.023 153.183 189.593 152.621 190.278 152.232C190.964 151.843 191.741 151.641 192.531 151.645C193.313 151.643 194.081 151.848 194.757 152.238C195.432 152.628 195.991 153.189 196.374 153.864L196.423 153.949C196.812 154.63 197.014 155.4 197.01 156.182C197.006 156.965 196.795 157.732 196.399 158.409C187.101 174.176 173.804 187.263 157.826 196.372C141.847 205.482 123.743 210.297 105.306 210.342Z" fill="#F9A825"/>
<path opacity="0.2" d="M106.5 176.402C90.189 176.402 74.3832 170.756 61.775 160.427C49.1669 150.098 40.5366 135.725 37.3547 119.757C34.1727 103.788 36.636 87.2119 44.3248 72.853C52.0136 58.494 64.4521 47.2405 79.5211 41.0099C94.59 34.7793 111.357 33.9571 126.965 38.6834C142.573 43.4097 156.057 53.3921 165.119 66.9297C174.18 80.4672 178.259 96.7224 176.66 112.925C175.062 129.129 167.884 144.277 156.351 155.79C149.82 162.345 142.051 167.542 133.494 171.08C124.937 174.618 115.762 176.427 106.5 176.402ZM106.5 39.9925C70.023 39.9925 40.3472 69.6154 40.3472 106.027C40.3472 142.439 70.023 172.062 106.5 172.062C142.976 172.062 172.652 142.439 172.652 106.027C172.652 69.6154 142.976 39.9925 106.5 39.9925Z" fill="black"/>
<path d="M106.5 173.407C143.779 173.407 174 143.24 174 106.028C174 68.8147 143.779 38.6477 106.5 38.6477C69.2208 38.6477 39 68.8147 39 106.028C39 143.24 69.2208 173.407 106.5 173.407Z" fill="#3F3D56"/>
<path d="M55.9573 79.1294C55.4343 78.1212 55.1183 77.0214 55.0274 75.893C54.9365 74.7645 55.0725 73.6295 55.4276 72.5527C55.7827 71.476 56.35 70.4787 57.097 69.6179C57.8439 68.7571 58.756 68.0496 59.781 67.5359C60.806 67.0222 61.9238 66.7124 63.0705 66.6241C64.2173 66.5359 65.3704 66.6709 66.4641 67.0215C67.5578 67.3721 68.5705 67.9315 69.4444 68.6675C70.3183 69.4036 71.0362 70.3019 71.5571 71.3112L91.0427 108.968C91.5657 109.977 91.8817 111.076 91.9726 112.205C92.0635 113.333 91.9275 114.468 91.5724 115.545C91.2173 116.622 90.6501 117.619 89.9031 118.48C89.1561 119.341 88.244 120.048 87.219 120.562C86.194 121.076 85.0762 121.386 83.9295 121.474C82.7828 121.562 81.6296 121.427 80.5359 121.076C79.4422 120.726 78.4295 120.166 77.5556 119.43C76.6817 118.694 75.9638 117.796 75.4429 116.787L55.9573 79.1294Z" fill="#FF6584"/>
<path opacity="0.2" d="M57.8721 83.5677L57 81.7522C61.3525 78.167 66.4636 75.5304 72.1279 73.5854L73 75.4009C66.8695 76.7543 61.6538 79.2588 57.8721 83.5677Z" fill="black"/>
<path opacity="0.2" d="M62.8176 91.5534L62 89.7379C66.0805 86.1527 70.8721 83.5161 76.1824 81.5712L77 83.3867C71.2526 84.74 66.363 87.2445 62.8176 91.5534Z" fill="black"/>
<path opacity="0.2" d="M66.8721 99.5392L66 97.7237C70.3525 94.1386 75.4636 91.5019 81.1279 89.557L82 91.3725C75.8695 92.7258 70.6538 95.2304 66.8721 99.5392Z" fill="black"/>
<path opacity="0.2" d="M69.9266 106.527L69 104.893C73.6245 101.666 79.0551 99.2932 85.0734 97.5427L86 99.1767C79.4863 100.395 73.9447 102.649 69.9266 106.527Z" fill="black"/>
<path opacity="0.2" d="M73.9266 115.511L73 113.695C77.6245 110.11 83.0551 107.473 89.0734 105.528L90 107.344C83.4863 108.697 77.9447 111.202 73.9266 115.511Z" fill="black"/>
<path d="M40.9571 93.1076C40.4341 92.0991 40.1181 90.999 40.0273 89.8703C39.9365 88.7415 40.0726 87.6062 40.4278 86.5293C40.7831 85.4523 41.3505 84.4548 42.0976 83.5938C42.8447 82.7328 43.757 82.0251 44.7821 81.5113C45.8073 80.9975 46.9253 80.6876 48.0722 80.5993C49.2191 80.5109 50.3725 80.646 51.4664 80.9966C52.5603 81.3472 53.5732 81.9066 54.4473 82.6428C55.3214 83.379 56.0395 84.2775 56.5606 85.287L76.0508 122.956C77.1016 124.992 77.2882 127.356 76.5695 129.527C75.8508 131.699 74.2856 133.5 72.2179 134.537C70.1502 135.573 67.749 135.759 65.5419 135.054C63.3349 134.349 61.5025 132.811 60.4473 130.777L40.9571 93.1076Z" fill="#FF6584"/>
<path opacity="0.2" d="M43.8721 97.5427L43 95.5456C47.3525 91.602 52.4636 88.7017 58.1279 86.5623L59 88.5593C52.8695 90.048 47.6538 92.8029 43.8721 97.5427Z" fill="black"/>
<path opacity="0.2" d="M46.9266 105.529L46 103.895C50.6245 100.668 56.055 98.295 62.0734 96.5446L63 98.1785C56.4863 99.3965 50.9447 101.651 46.9266 105.529Z" fill="black"/>
<path opacity="0.2" d="M51.8721 113.514L51 111.88C55.3525 108.654 60.4636 106.281 66.1279 104.53L67 106.164C60.8695 107.382 55.6538 109.636 51.8721 113.514Z" fill="black"/>
<path opacity="0.2" d="M55.8721 121.5L55 119.685C59.3525 116.099 64.4636 113.463 70.1279 111.518L71 113.333C64.8695 114.687 59.6538 117.191 55.8721 121.5Z" fill="black"/>
<path opacity="0.2" d="M59.9266 130.484L59 128.669C63.6245 125.083 69.055 122.447 75.0733 120.502L76 122.317C69.4863 123.671 63.9447 126.175 59.9266 130.484Z" fill="black"/>
<path d="M152.835 108.535L152.896 108.535C154.984 108.552 157.029 107.941 158.764 106.782C160.499 105.622 161.844 103.967 162.622 102.033C164.224 97.9942 165.03 93.6853 164.999 89.3418C164.89 70.9574 149.902 55.8751 131.481 55.6208C123.636 55.5112 115.994 58.1122 109.851 62.9829C103.708 67.8536 99.442 74.6943 97.7757 82.3454C96.1095 89.9965 97.1457 97.9872 100.709 104.963C104.272 111.939 110.143 117.47 117.326 120.62C119.224 121.459 121.332 121.705 123.373 121.328C125.414 120.95 127.293 119.966 128.764 118.503C131.919 115.339 135.67 112.829 139.801 111.118C143.932 109.407 148.362 108.529 152.835 108.535Z" fill="#E6E6E6"/>
<path d="M135 98.5409C141.075 98.5409 146 93.6248 146 87.5605C146 81.4962 141.075 76.5801 135 76.5801C128.925 76.5801 124 81.4962 124 87.5605C124 93.6248 128.925 98.5409 135 98.5409Z" fill="#F9A825"/>
<path d="M110 85.5641C110.552 85.5641 111 85.1171 111 84.5658C111 84.0145 110.552 83.5676 110 83.5676C109.448 83.5676 109 84.0145 109 84.5658C109 85.1171 109.448 85.5641 110 85.5641Z" fill="#3F3D56"/>
<path d="M67 86.5624C67.5523 86.5624 68 86.1154 68 85.5641C68 85.0128 67.5523 84.5659 67 84.5659C66.4477 84.5659 66 85.0128 66 85.5641C66 86.1154 66.4477 86.5624 67 86.5624Z" fill="#3F3D56"/>
<path d="M117.5 71.589C118.328 71.589 119 71.1421 119 70.5908C119 70.0394 118.328 69.5925 117.5 69.5925C116.672 69.5925 116 70.0394 116 70.5908C116 71.1421 116.672 71.589 117.5 71.589Z" fill="#3F3D56"/>
<path d="M117.5 109.521C118.328 109.521 119 108.851 119 108.024C119 107.197 118.328 106.527 117.5 106.527C116.672 106.527 116 107.197 116 108.024C116 108.851 116.672 109.521 117.5 109.521Z" fill="#3F3D56"/>
<path d="M144 68.5943C145.105 68.5943 146 68.1474 146 67.5961C146 67.0448 145.105 66.5979 144 66.5979C142.895 66.5979 142 67.0448 142 67.5961C142 68.1474 142.895 68.5943 144 68.5943Z" fill="#3F3D56"/>
<path d="M59 105.528C59.5523 105.528 60 104.858 60 104.031C60 103.204 59.5523 102.534 59 102.534C58.4477 102.534 58 103.204 58 104.031C58 104.858 58.4477 105.528 59 105.528Z" fill="#3F3D56"/>
<path d="M68 124.495C68.5523 124.495 69 123.824 69 122.997C69 122.17 68.5523 121.5 68 121.5C67.4477 121.5 67 122.17 67 122.997C67 123.824 67.4477 124.495 68 124.495Z" fill="#3F3D56"/>
<path d="M128.5 130.484C130.985 130.484 133 128.249 133 125.493C133 122.736 130.985 120.502 128.5 120.502C126.015 120.502 124 122.736 124 125.493C124 128.249 126.015 130.484 128.5 130.484Z" fill="#FF6584"/>
<path opacity="0.2" d="M132 125.493C132 126.552 131.631 127.568 130.975 128.316C130.318 129.065 129.428 129.486 128.5 129.486C127.572 129.486 126.681 129.065 126.025 128.316C125.369 127.568 125 126.552 125 125.493" fill="black"/>
<path opacity="0.2" d="M125 125.493C125 124.434 125.369 123.418 126.025 122.669C126.681 121.921 127.572 121.5 128.5 121.5C129.428 121.5 130.318 121.921 130.975 122.669C131.631 123.418 132 124.434 132 125.493" fill="black"/>
<path d="M126.5 124.495C126.776 124.495 127 124.271 127 123.996C127 123.72 126.776 123.496 126.5 123.496C126.224 123.496 126 123.72 126 123.996C126 124.271 126.224 124.495 126.5 124.495Z" fill="#FF6584"/>
<path d="M128.5 124.495C128.776 124.495 129 124.048 129 123.497C129 122.945 128.776 122.498 128.5 122.498C128.224 122.498 128 122.945 128 123.497C128 124.048 128.224 124.495 128.5 124.495Z" fill="#FF6584"/>
<path d="M128.5 127.489C128.776 127.489 129 127.266 129 126.99C129 126.715 128.776 126.491 128.5 126.491C128.224 126.491 128 126.715 128 126.99C128 127.266 128.224 127.489 128.5 127.489Z" fill="#FF6584"/>
<path d="M130.5 125.493C130.776 125.493 131 125.27 131 124.994C131 124.718 130.776 124.495 130.5 124.495C130.224 124.495 130 124.718 130 124.994C130 125.27 130.224 125.493 130.5 125.493Z" fill="#FF6584"/>
<path d="M138.5 116.509C141.538 116.509 144 114.274 144 111.518C144 108.761 141.538 106.527 138.5 106.527C135.462 106.527 133 108.761 133 111.518C133 114.274 135.462 116.509 138.5 116.509Z" fill="#FF6584"/>
<path opacity="0.2" d="M142 112.516C142 113.31 141.631 114.072 140.975 114.634C140.319 115.195 139.428 115.511 138.5 115.511C137.572 115.511 136.681 115.195 136.025 114.634C135.369 114.072 135 113.31 135 112.516" fill="black"/>
<path opacity="0.2" d="M135 111.518C135 110.459 135.369 109.443 136.025 108.694C136.681 107.946 137.572 107.525 138.5 107.525C139.428 107.525 140.319 107.946 140.975 108.694C141.631 109.443 142 110.459 142 111.518" fill="black"/>
<path d="M136.5 110.52C136.776 110.52 137 110.296 137 110.02C137 109.745 136.776 109.521 136.5 109.521C136.224 109.521 136 109.745 136 110.02C136 110.296 136.224 110.52 136.5 110.52Z" fill="#FF6584"/>
<path d="M138.5 110.52C138.776 110.52 139 110.296 139 110.02C139 109.745 138.776 109.521 138.5 109.521C138.224 109.521 138 109.745 138 110.02C138 110.296 138.224 110.52 138.5 110.52Z" fill="#FF6584"/>
<path d="M138.5 114.513C138.776 114.513 139 114.289 139 114.013C139 113.738 138.776 113.514 138.5 113.514C138.224 113.514 138 113.738 138 114.013C138 114.289 138.224 114.513 138.5 114.513Z" fill="#FF6584"/>
<path d="M140.5 115.511C140.776 115.511 141 115.287 141 115.012C141 114.736 140.776 114.512 140.5 114.512C140.224 114.512 140 114.736 140 115.012C140 115.287 140.224 115.511 140.5 115.511Z" fill="#FF6584"/>
<path d="M148.5 124.495C150.985 124.495 153 122.037 153 119.004C153 115.972 150.985 113.514 148.5 113.514C146.015 113.514 144 115.972 144 119.004C144 122.037 146.015 124.495 148.5 124.495Z" fill="#C78BFF"/>
<path opacity="0.2" d="M152 119.504C152 120.563 151.631 121.578 150.975 122.327C150.319 123.076 149.428 123.496 148.5 123.496C147.572 123.496 146.681 123.076 146.025 122.327C145.369 121.578 145 120.563 145 119.504" fill="black"/>
<path opacity="0.2" d="M145 118.505C145 117.711 145.369 116.949 146.025 116.388C146.681 115.826 147.572 115.511 148.5 115.511C149.428 115.511 150.319 115.826 150.975 116.388C151.631 116.949 152 117.711 152 118.505" fill="black"/>
<path d="M146.5 117.507C146.776 117.507 147 117.284 147 117.008C147 116.732 146.776 116.509 146.5 116.509C146.224 116.509 146 116.732 146 117.008C146 117.284 146.224 117.507 146.5 117.507Z" fill="#C78BFF"/>
<path d="M146.5 120.502C146.776 120.502 147 120.278 147 120.003C147 119.727 146.776 119.504 146.5 119.504C146.224 119.504 146 119.727 146 120.003C146 120.278 146.224 120.502 146.5 120.502Z" fill="#C78BFF"/>
<path d="M123.5 125.493C125.985 125.493 128 123.035 128 120.003C128 116.97 125.985 114.512 123.5 114.512C121.015 114.512 119 116.97 119 120.003C119 123.035 121.015 125.493 123.5 125.493Z" fill="#C78BFF"/>
<path opacity="0.2" d="M127 120.502C127 121.561 126.631 122.576 125.975 123.325C125.318 124.074 124.428 124.495 123.5 124.495C122.572 124.495 121.681 124.074 121.025 123.325C120.369 122.576 120 121.561 120 120.502" fill="black"/>
<path opacity="0.2" d="M120 119.504C120 118.445 120.369 117.429 121.025 116.68C121.681 115.931 122.572 115.511 123.5 115.511C124.428 115.511 125.318 115.931 125.975 116.68C126.631 117.429 127 118.445 127 119.504" fill="black"/>
<path d="M121.5 118.505C121.776 118.505 122 118.282 122 118.006C122 117.731 121.776 117.507 121.5 117.507C121.224 117.507 121 117.731 121 118.006C121 118.282 121.224 118.505 121.5 118.505Z" fill="#C78BFF"/>
<path d="M125.5 122.498C125.776 122.498 126 122.275 126 121.999C126 121.723 125.776 121.5 125.5 121.5C125.224 121.5 125 121.723 125 121.999C125 122.275 125.224 122.498 125.5 122.498Z" fill="#C78BFF"/>
<path d="M135 126.491C137.761 126.491 140 124.257 140 121.5C140 118.744 137.761 116.509 135 116.509C132.239 116.509 130 118.744 130 121.5C130 124.257 132.239 126.491 135 126.491Z" fill="#C78BFF"/>
<path opacity="0.2" d="M139 122.498C139 122.892 138.897 123.281 138.696 123.644C138.494 124.008 138.2 124.338 137.828 124.616C137.457 124.894 137.016 125.114 136.531 125.265C136.045 125.415 135.525 125.493 135 125.493C134.475 125.493 133.955 125.415 133.469 125.265C132.984 125.114 132.543 124.894 132.172 124.616C131.8 124.338 131.505 124.008 131.304 123.644C131.103 123.281 131 122.892 131 122.498" fill="black"/>
<path opacity="0.2" d="M131 121.5C131 120.976 131.103 120.457 131.304 119.972C131.505 119.488 131.8 119.047 132.172 118.677C132.543 118.306 132.984 118.012 133.469 117.811C133.955 117.61 134.475 117.507 135 117.507C135.525 117.507 136.045 117.61 136.531 117.811C137.016 118.012 137.457 118.306 137.828 118.677C138.2 119.047 138.494 119.488 138.696 119.972C138.897 120.457 139 120.976 139 121.5" fill="black"/>
<path d="M132.5 120.502C132.776 120.502 133 120.278 133 120.003C133 119.727 132.776 119.504 132.5 119.504C132.224 119.504 132 119.727 132 120.003C132 120.278 132.224 120.502 132.5 120.502Z" fill="#C78BFF"/>
<path d="M136.5 121.5C136.776 121.5 137 121.277 137 121.001C137 120.725 136.776 120.502 136.5 120.502C136.224 120.502 136 120.725 136 121.001C136 121.277 136.224 121.5 136.5 121.5Z" fill="#C78BFF"/>
<path d="M132.5 123.497C132.776 123.497 133 123.273 133 122.997C133 122.722 132.776 122.498 132.5 122.498C132.224 122.498 132 122.722 132 122.997C132 123.273 132.224 123.497 132.5 123.497Z" fill="#C78BFF"/>
<path d="M142 131.482C144.761 131.482 147 129.471 147 126.99C147 124.509 144.761 122.498 142 122.498C139.239 122.498 137 124.509 137 126.99C137 129.471 139.239 131.482 142 131.482Z" fill="#FF6584"/>
<path opacity="0.2" d="M146 126.491C146 127.55 145.631 128.566 144.975 129.314C144.319 130.063 143.428 130.484 142.5 130.484C141.572 130.484 140.681 130.063 140.025 129.314C139.369 128.566 139 127.55 139 126.491" fill="black"/>
<path opacity="0.2" d="M139 126.491C139 125.697 139.369 124.935 140.025 124.374C140.681 123.812 141.572 123.496 142.5 123.496C143.428 123.496 144.319 123.812 144.975 124.374C145.631 124.935 146 125.697 146 126.491" fill="black"/>
<path d="M142.5 125.493C142.776 125.493 143 125.27 143 124.994C143 124.718 142.776 124.495 142.5 124.495C142.224 124.495 142 124.718 142 124.994C142 125.27 142.224 125.493 142.5 125.493Z" fill="#FF6584"/>
<path d="M142.5 129.486C142.776 129.486 143 129.039 143 128.488C143 127.936 142.776 127.489 142.5 127.489C142.224 127.489 142 127.936 142 128.488C142 129.039 142.224 129.486 142.5 129.486Z" fill="#FF6584"/>
<path d="M144.5 130.484C144.776 130.484 145 130.261 145 129.985C145 129.709 144.776 129.486 144.5 129.486C144.224 129.486 144 129.709 144 129.985C144 130.261 144.224 130.484 144.5 130.484Z" fill="#FF6584"/>
<path d="M78.5 109.521C79.3284 109.521 80 108.627 80 107.525C80 106.422 79.3284 105.528 78.5 105.528C77.6716 105.528 77 106.422 77 107.525C77 108.627 77.6716 109.521 78.5 109.521Z" fill="#3F3D56"/>
<path d="M114.782 155.44L83 146.863L84.2175 142.463L116 151.039L114.782 155.44Z" fill="#F9A825"/>
<path d="M110 153.942C99.099 155.939 87.901 155.939 77 153.942V149.45C87.9255 151.183 99.0745 151.183 110 149.45V153.942Z" fill="#F9A825"/>
<path d="M113 140.716C102.429 143.045 91.5707 143.045 81 140.716V135.475C91.5944 137.496 102.406 137.496 113 135.475V140.716Z" fill="#F9A825"/>
<path d="M125 145.956C114.099 147.953 102.901 147.953 92 145.956V141.464C102.925 143.197 114.075 143.197 125 141.464V145.956Z" fill="#F9A825"/>
<path d="M127 150.948C116.099 152.944 104.901 152.944 94 150.948V146.456C104.925 148.188 116.075 148.188 127 146.456V150.948Z" fill="#F9A825"/>
<path d="M137 158.479L104.748 164.424L104 159.388L136.252 153.443L137 158.479Z" fill="#F9A825"/>
<path d="M132 158.641C123.233 165.047 113.352 169.718 102.876 172.409L101 168.209C111.384 165.262 121.222 160.611 130.124 154.441L132 158.641Z" fill="#F9A825"/>
<path d="M129 144.666C119.95 151.072 109.751 155.743 98.9367 158.434L97 154.234C107.719 151.287 117.875 146.636 127.063 140.466L129 144.666Z" fill="#F9A825"/>
<path d="M142 144.9C132.95 151.661 122.751 156.591 111.937 159.432L110 154.999C120.719 151.888 130.875 146.979 140.063 140.466L142 144.9Z" fill="#F9A825"/>
<path d="M147 149.424C137.95 155.474 127.751 159.885 116.937 162.427L115 158.46C125.719 155.677 135.875 151.284 145.063 145.457L147 149.424Z" fill="#F9A825"/>
<path d="M87 139.468H86V140.466H87V139.468Z" fill="#00BF71"/>
<path d="M124 159.432H122V160.431H124V159.432Z" fill="#00BF71"/>
<path d="M125 149.45H123V150.448H125V149.45Z" fill="#00BF71"/>
<path d="M98.5736 145.36L96.7749 144.142L96.0776 145.168L97.8762 146.386L98.5736 145.36Z" fill="#00BF71"/>
<path d="M116.894 148.77L115.096 147.552L114.398 148.578L116.197 149.796L116.894 148.77Z" fill="#00BF71"/>
<path d="M94.537 154.659L92.7383 153.441L92.0409 154.467L93.8396 155.685L94.537 154.659Z" fill="#00BF71"/>
<path d="M105.924 154.569L107.145 152.774L106.117 152.077L104.896 153.873L105.924 154.569Z" fill="#00BF71"/>
<path d="M114.307 156.739L115.528 154.943L114.5 154.247L113.28 156.043L114.307 156.739Z" fill="#00BF71"/>
<path d="M136.667 149.299L137.887 147.504L136.859 146.808L135.639 148.603L136.667 149.299Z" fill="#00BF71"/>
</svg>
